# File generated by ImageToStl.com - Free Image and 3D model conversion tools

mtllib rice_grains.mtl

o obj1
v 0.58957945 0.85612244 -0.23110068
v 0.55048753 0.84039204 -0.33283086
v 0.45525035 0.95718645 -0.30548306
v 0.41865857 1.02933896 -0.23688104
v 0.49353195 0.80609842 -0.42124486
v 0.38391411 0.97646053 -0.34840162
v 0.23157203 1.14658193 -0.25779356
v -0.44976113 -1.30924701 0.27251229
v -0.30669078 -1.48119264 0.23957584
v -0.28017757 -1.44773058 0.31160862
v -0.35500039 -1.3316534 0.35989307
v -0.10078141 -1.65051066 0.20666651
v -0.18485607 -1.47867426 0.34212533
v -0.2531711 -1.30621414 0.44357085
v 0.50513279 -1.5009015 -0.18212601
v 0.47801415 -1.42904721 -0.3169573
v 0.53671311 -1.37325514 -0.3237455
v 0.58150303 -1.38768575 -0.24257306
v 0.43559318 -1.31077735 -0.46867681
v 0.54845328 -1.29502096 -0.3952451
v 0.63645399 -1.27059694 -0.30463246
v -0.62712652 -0.93838774 0.16828701
v -0.5515956 -1.17093134 0.2311662
v -0.53406474 -1.12241704 0.30086735
v -0.556932 -0.97688074 0.32027782
v -0.47371546 -1.17592062 0.35428188
v -0.45918875 -0.97199354 0.4418677
v 0.17351176 1.25568572 -0.1691072
v 0.21548107 1.24724238 -0.12727208
v 0.27741985 1.19345782 -0.13731153
v 0.13768674 1.2861136 -0.116139
v 0.20205507 1.26136234 -0.074717
v 0.29941674 1.19216841 -0.03473704
v -0.03726308 -1.80467414 -0.07642351
v 0.06455333 -1.79692044 -0.15052833
v 0.13541377 -1.78655299 -0.12460099
v 0.13706374 -1.79134283 -0.06738871
v 0.1435561 -1.69958338 -0.25355861
v 0.21225112 -1.74941709 -0.15053055
v 0.32303252 -1.69629899 -0.05818886
v 0.20480839 -1.61069453 0.24179119
v 0.36529872 -1.52197674 0.2238261
v 0.37252774 -1.45111792 0.28723385
v 0.28029473 -1.46922787 0.3291719
v 0.53308789 -1.3708526 0.20115563
v 0.44787746 -1.3385227 0.32129734
v 0.34000873 -1.30531592 0.41491419
v 0.09002161 1.02632324 -0.38475916
v 0.05095619 1.11478685 -0.32068125
v 0.09309558 1.21728065 -0.23686002
v -0.04287242 0.85459941 -0.49990044
v -0.017206 1.08781863 -0.3424986
v 0.0056336 1.25976602 -0.20717462
v 0.04027841 -1.33720738 0.48109225
v -0.02536046 -1.51965266 0.35056126
v 0.05098282 -1.57992425 0.3048444
v 0.12017864 -1.51002034 0.35193169
v 0.06957089 -1.67209422 0.22094758
v -0.41413343 0.80342189 -0.30929294
v -0.28443236 0.9481596 -0.31393612
v -0.27822898 0.91651275 -0.34902352
v -0.35101541 0.81507254 -0.36344081
v -0.14436793 1.0967936 -0.29395287
v -0.21330314 0.94225255 -0.37563084
v -0.28920767 0.79054123 -0.42651877
v 0.65935765 -1.32681913 -0.04763548
v 0.73581859 -1.16207467 -0.12348311
v 0.75131185 -1.11100233 -0.04847382
v 0.72060749 -1.169772 0.0309714
v 0.7723811 -0.94681379 -0.21857311
v 0.78013225 -0.95967907 -0.06105264
v 0.74595454 -0.9295568 0.11273653
v -0.00496444 1.17224534 -0.0775765
v -0.02196316 1.23700349 -0.13777702
v -0.05263776 1.20596959 -0.17374369
v -0.06504386 1.15300127 -0.17084688
v -0.02981799 1.27726433 -0.16483285
v -0.07481235 1.20895202 -0.20638856
v -0.1372039 1.1055933 -0.23468297
v -0.48612067 0.53391139 0.1020402
v -0.5502554 0.55319888 0.00425711
v -0.58560048 0.53475609 0.03616295
v -0.57761103 0.51788281 0.08904303
v -0.59595214 0.58387021 -0.07404392
v -0.62205388 0.54136466 0.00868176
v -0.63469009 0.51557008 0.07484535
v 0.31595677 -1.62087537 -0.25622669
v 0.26514903 -1.50478851 -0.38983475
v 0.31601058 -1.43790922 -0.42965035
v 0.36945782 -1.48072833 -0.36319237
v 0.19960524 -1.33199103 -0.52879238
v 0.31788647 -1.32235114 -0.51561128
v 0.0661583 1.17858446 0.15830241
v 0.03643263 1.17036353 0.05045973
v 0.02125593 1.10336997 0.05366789
v 0.02831122 1.07254825 0.12436327
v -0.00837375 1.06105073 -0.00638747
v -0.03102899 0.9436526 0.07616109
v -0.41238732 0.5718156 0.44808095
v -0.39349827 0.5681771 0.40614184
v -0.43888223 0.54602521 0.39149085
v -0.46214625 0.54449646 0.41842044
v -0.35436575 0.57376389 0.31359607
v -0.44762802 0.53570468 0.33877499
v -0.51490419 0.51949621 0.36011374
v -0.3697004 0.85463857 -0.27267703
v -0.41491761 0.74702576 -0.21323579
v -0.36375717 0.7781601 -0.21333562
v -0.31906321 0.8532651 -0.24233231
v -0.43291059 0.66156979 -0.12726442
v -0.34165262 0.74862043 -0.16860544
v -0.25809324 0.84904876 -0.19488128
v 0.61269043 0.8581033 -0.01842258
v 0.69223602 0.69019275 0.04191459
v 0.72579525 0.63671175 -0.01788274
v 0.71011455 0.69198396 -0.08168584
v 0.71273843 0.47617765 0.13702081
v 0.75673961 0.48670307 0.00091426
v 0.76514782 0.47593333 -0.12005522
v 0.61628012 -0.24223217 0.37964941
v 0.68907114 -0.62526579 0.26878378
v 0.73563126 -0.4873428 0.21503777
v 0.7259896 -0.23300978 0.236669
v 0.78417561 -0.54077067 0.11616939
v 0.79698765 -0.1663899 0.09393357
v -0.52892273 0.47796582 -0.31694084
v -0.4069183 0.66279866 -0.38978862
v -0.36991634 0.61432101 -0.44006852
v -0.40431589 0.47252645 -0.44250228
v -0.28425754 0.66743659 -0.48713703
v -0.25676333 0.46875543 -0.5460524
v -0.01301339 -0.25136092 0.65084316
v 0.09311123 -0.64277507 0.62852634
v 0.17219449 -0.51372584 0.62445743
v 0.16172213 -0.24883628 0.63262121
v 0.1996531 -0.97311954 0.57234872
v 0.26568259 -0.64027883 0.58745999
v 0.32978229 -0.24639641 0.5758372
v 0.08115575 0.14294244 0.62828798
v -0.00802883 0.26819243 0.62382522
v -0.10567489 0.13831966 0.63182303
v 0.18271002 0.47628888 0.5716961
v 0.00408988 0.4815659 0.59614066
v -0.17342992 0.48825336 0.58867162
v 0.54002605 0.80917269 0.2226535
v 0.54310074 0.67704774 0.31193212
v 0.61122483 0.62681356 0.2539436
v 0.64094129 0.67987924 0.17653943
v 0.50236521 0.47330911 0.40912204
v 0.62514276 0.48320285 0.27871745
v -0.38547329 -0.21361871 0.56883158
v -0.42884131 -0.64172401 0.52077017
v -0.34799657 -0.7690178 0.55046758
v -0.27707545 -0.63964633 0.59227547
v -0.32398254 -0.98059072 0.52866597
v -0.16121845 -0.96986867 0.5856287
v -0.63918034 0.49430663 -0.08396673
v -0.59683433 0.59254552 -0.15866296
v -0.58440907 0.57003744 -0.20378773
v -0.60488247 0.46336323 -0.19381828
v -0.55307361 0.65385851 -0.21394587
v -0.54829791 0.60861581 -0.25459804
v -0.52544037 0.60962352 -0.0941798
v -0.53079631 0.63720116 -0.13876765
v -0.56039486 0.63791707 -0.14902976
v -0.49112666 0.67471776 -0.17406443
v -0.51408281 0.69698283 -0.21021119
v 0.44749838 -1.54312327 0.0707748
v 0.36862591 -1.61433945 0.08792551
v 0.26401019 -1.71747466 0.0339697
v 0.36918126 -1.5831872 0.14536408
v 0.19089594 -1.73346258 0.10057253
v 0.16800686 -0.24980664 -0.69545075
v 0.3088365 0.14037758 -0.65877116
v 0.38317293 0.01457956 -0.65161296
v 0.35286446 -0.24626782 -0.66929261
v 0.43153546 0.4689967 -0.58521528
v 0.48511254 0.1413792 -0.60245569
v 0.5270382 -0.244662 -0.60138726
v 0.69434922 0.43688105 -0.37287171
v 0.60172533 0.66999839 -0.40726038
v 0.61685962 0.73066123 -0.35131912
v 0.66542964 0.68039315 -0.30497096
v -0.0784287 -1.77063397 -0.13931262
v 0.01435273 -1.79502259 -0.16573798
v -0.09053845 -1.68226881 -0.21890482
v 0.03564947 -1.73242777 -0.22970816
v 0.26303514 0.68373151 0.50105393
v 0.19458715 0.72842896 0.51259074
v 0.1207642 0.67377695 0.54624104
v 0.29577352 0.8496595 0.40469175
v 0.18352624 0.8129882 0.47554378
v 0.07121685 0.78439943 0.51133564
v 0.43000809 -0.63400019 0.50996589
v 0.49422448 -0.50481552 0.48180909
v 0.48041894 -0.24420741 0.49677063
v 0.52292587 -0.96284954 0.40820896
v 0.57292261 -0.63052491 0.40891326
v -0.48679632 -1.34684881 0.06879953
v -0.3053078 -1.53373097 0.13548321
v -0.36778932 -1.45644776 0.1797692
v -0.478803 -1.33519844 0.17464396
v 0.07681675 0.89124847 0.44850519
v 0.01543233 0.87643331 0.46569422
v -0.01682557 0.80637853 0.50755465
v 0.05514643 0.9757347 0.38429752
v -0.01674395 0.89602392 0.45023137
v -0.08773538 0.80281112 0.50559971
v 0.03109436 1.04961177 0.19334939
v 0.05156211 1.09880605 0.23314154
v 0.00084607 0.97151594 0.20444317
v 0.01795826 1.00290917 0.30567071
v 0.08336898 -1.80107866 0.01125188
v 0.01520248 -1.8075147 0.022222
v -0.09517835 -1.77995783 -0.01942473
v 0.03188783 -1.78502162 0.06854079
v -0.14062779 -1.72869396 0.03284465
v -0.14736191 0.6758645 -0.55197925
v -0.20513802 0.72253594 -0.51379076
v -0.17856653 0.82041693 -0.47724012
v 0.6249593 0.13568782 -0.50307398
v 0.56913375 0.2652837 -0.53557361
v 0.57549733 0.47420301 -0.49453367
v -0.58851989 -0.97359303 -0.16197003
v -0.57369894 -1.17832987 -0.03181113
v -0.59932179 -1.12233671 0.02790197
v -0.62686025 -0.97714237 -0.00283315
v -0.58124263 -1.17243656 0.11012207
v -0.36182498 -1.17463199 0.45477912
v -0.30335913 -1.12329591 0.50781622
v -0.21646741 -1.17273908 0.52589733
v 0.66291733 -1.1778158 0.17041356
v 0.63273795 -1.12241954 0.2498524
v 0.56427975 -1.17951421 0.30706824
v 0.64609564 -0.96898317 0.27589378
v 0.42012895 -0.63249102 -0.63709562
v 0.33533295 -0.50707365 -0.67036258
v 0.31837063 -0.96251809 -0.63162821
v 0.23608909 -0.63661264 -0.67804743
v -0.43077088 -1.38058635 -0.14963157
v -0.45325353 -1.18289751 -0.29477936
v -0.40333501 -1.23386634 -0.33192951
v -0.36907269 -1.34949695 -0.2792479
v -0.38704083 -0.9735017 -0.43953641
v -0.34294732 -1.17929488 -0.41906799
v -0.27108814 -1.31954059 -0.39545575
v 0.2917996 1.13279689 0.14250277
v 0.45172605 1.02185173 0.06188897
v 0.39952098 1.09194135 0.02851485
v 0.29276572 1.18290509 0.05487021
v 0.46119368 1.04018035 -0.03128235
v 0.67669239 0.14603524 0.2706121
v 0.72684509 0.02206075 0.21586455
v 0.76597946 0.15292992 0.11941759
v 0.41871688 0.14381796 0.51005229
v 0.48666085 0.01663627 0.48184436
v 0.56171972 0.14440848 0.40901762
v 0.44906863 1.04139965 -0.13081959
v 0.37765451 1.09858058 -0.16463222
v -0.05502268 0.86738983 0.2940312
v -0.07103484 0.8523905 0.35938759
v -0.03925107 0.90975274 0.3879321
v -0.14584264 0.73752349 0.27393338
v -0.12212005 0.78553676 0.38265904
v -0.10860808 0.82533833 0.45824933
v 0.06148685 1.26639722 0.04858068
v 0.04171537 1.28372983 -0.01480843
v 0.03161493 1.25560418 -0.0288947
v 0.03801908 1.23061656 0.00397078
v 0.02245945 1.2933306 -0.06820909
v 0.01337074 1.25327437 -0.07496109
v -0.6719081 -0.21867525 -0.12684729
v -0.67023573 -0.63809973 0.01268224
v -0.68665388 -0.50922154 0.07273454
v -0.69774252 -0.26137017 0.04204617
v -0.6743717 -0.56448424 0.17263563
v -0.69095377 -0.20668364 0.17576163
v 0.06975179 -1.54223066 -0.38504811
v 0.11206242 -1.46402912 -0.44679942
v 0.17459727 -1.52401259 -0.39862127
v -0.0200957 -1.38202023 -0.48200849
v 0.08192897 -1.34008856 -0.52744496
v 0.6142351 -0.95560513 -0.4832439
v 0.63437919 -1.15396439 -0.39999533
v 0.57053814 -1.20778466 -0.44059666
v 0.52214246 -1.16131579 -0.49943747
v -0.5927577 -0.26692994 0.39320667
v -0.61826663 -0.64081409 0.30300658
v -0.57432195 -0.76833859 0.35159388
v -0.5364029 -0.64525735 0.42709557
v 0.78513537 0.13788615 -0.26178386
v 0.78461898 0.00216252 -0.30851287
v 0.73839325 0.05442673 -0.38835255
v 0.8295523 -0.23933524 -0.14907788
v 0.80709248 -0.24712546 -0.27884452
v 0.75294442 -0.31372731 -0.391215
v 0.38445514 -1.16453601 -0.57026249
v 0.4612819 -1.11237941 -0.55331506
v 0.47639024 -0.96883886 -0.57435517
v -0.05140527 -1.00771899 -0.61289578
v 0.05062094 -0.64594354 -0.67444486
v 0.13839619 -0.76875193 -0.67046252
v 0.14032895 -0.98205381 -0.64313987
v -0.30084969 -1.5803328 -0.04322121
v -0.21998998 -1.67451325 -0.05826542
v -0.23872612 -1.64375682 -0.10064265
v -0.64120222 0.3368239 0.25453476
v -0.6262305 0.09173353 0.32591956
v -0.60222556 0.21586932 0.35278803
v -0.60462687 0.38767224 0.31946472
v -0.57060367 0.10374821 0.40800712
v -0.55372853 0.38916955 0.39007764
v 0.69884792 0.68921142 -0.1929892
v 0.70762464 0.62955414 -0.25036848
v 0.74627861 0.47844989 -0.24175644
v -0.28779478 -0.64417136 -0.55592396
v -0.21577428 -0.77397259 -0.5815981
v -0.23460958 -0.98818592 -0.54047695
v -0.17469598 -0.2536955 -0.63193279
v -0.12243805 -0.6483916 -0.63402977
v 0.06433206 -1.74100167 0.14311493
v 0.0094041 -1.76445176 0.10903716
v -0.10627369 -1.72276284 0.10735381
v 0.2857752 -1.17487592 0.50131325
v 0.20288966 -1.22836335 0.51189645
v 0.19853195 -1.33059892 0.45928002
v 0.11959647 -1.17825922 0.54689669
v 0.81656598 -0.62076873 -0.17653512
v 0.81072828 -0.49731866 -0.2566585
v 0.77993355 -0.62704917 -0.3132336
v -0.54573788 -0.64620257 -0.31648992
v -0.49722303 -0.77229387 -0.36476485
v -0.50408067 -0.98357554 -0.30843408
v -0.46907229 -0.25744264 -0.44420535
v -0.43122981 -0.64475206 -0.45538241
v 0.81226998 -0.62188381 -0.02486348
v 0.81646179 -0.48598619 0.02458644
v 0.82829585 -0.23181764 -0.0188694
v -0.37040911 0.13561159 -0.51305597
v -0.30819247 0.00949222 -0.56495754
v -0.33087575 -0.25447993 -0.55583899
v -0.21633747 0.13857309 -0.60188583
v 0.13074504 1.28471089 -0.027868
v 0.17417101 1.2703527 -0.0212387
v 0.1139878 1.26797574 0.079875
v 0.19236979 1.25456762 0.03097816
v -0.35194291 0.59877826 0.43266697
v -0.30795474 0.61926576 0.405814
v -0.35600851 0.60914231 0.46860902
v -0.27560921 0.66548585 0.47469721
v -0.28339694 0.14124732 0.59556199
v -0.33972621 0.27803481 0.56228804
v -0.40614183 0.22098081 0.53243022
v -0.31224566 0.47341479 0.5502935
v -0.40731292 0.51862953 0.49272748
v -0.26100587 0.94196969 -0.25416515
v -0.24967171 0.99114133 -0.26893303
v -0.20419507 0.97463903 -0.23092731
v -0.1372039 1.1055933 -0.23468297
v 0.19691002 -1.44386015 0.38398546
v 0.69824748 -0.63244113 -0.44507935
v 0.6499642 -0.50440616 -0.50972401
v 0.66192676 -0.25084402 -0.50167292
v 0.57676935 -0.63001253 -0.55824448
v 0.08816293 -1.17962562 -0.59831732
v 0.15712648 -1.12319807 -0.61796479
v 0.24797508 -1.16931893 -0.6007183
v -0.6717484 0.38570185 0.08854806
v -0.69074836 0.10000097 0.12094833
v -0.67801001 0.21065637 0.17468985
v -0.6618046 0.38477545 0.17629705
v -0.67153985 0.09113892 0.22548076
v -0.21003061 0.69340096 0.38827362
v -0.17237626 0.73874245 0.41722291
v -0.19022962 0.74023339 0.47304354
v -0.24463696 0.69569029 0.01417532
v -0.30064977 0.61376744 0.16884469
v -0.24530074 0.64656408 0.20008443
v -0.18819412 0.70361865 0.14699789
v -0.24932083 0.6413059 0.28910255
v -0.03514707 0.67023828 0.55807421
v -0.06542621 0.72304457 0.54217561
v -0.13080793 0.68874161 0.54950269
v -0.16657016 0.73694064 0.5253683
v -0.17880456 0.67983328 0.5470597
v -0.23688356 0.68043853 0.52788756
v -0.22916503 0.61838826 0.55450832
v 0.11747813 1.15967883 0.22486673
v 0.09794614 1.06879288 0.30529746
v 0.1569075 1.01652948 0.33356516
v 0.19948893 1.03479579 0.30464168
v 0.16659018 0.93843573 0.39169514
v -0.04354602 0.13703172 -0.65738486
v 0.02407396 0.00968411 -0.68191657
v -0.00863744 -0.25282679 -0.68278385
v 0.08783793 0.466711 -0.64494443
v 0.12988404 0.13800311 -0.68183463
v -0.58691548 0.50631589 0.13797091
v -0.56062053 0.50611573 0.17624248
v -0.6253361 0.50105793 0.14590826
v -0.61187527 0.49372779 0.22373538
v -0.25673829 -1.5715732 -0.17535568
v -0.20037348 -1.66915772 -0.13197657
v -0.10141936 0.99843395 -0.39201886
v -0.06179568 1.09343625 -0.33469877
v -0.06097622 1.19129888 -0.25844367
v -0.50453308 0.51717217 0.24395473
v -0.45748324 0.52877431 0.26617279
v -0.41304625 0.54694331 0.20752696
v -0.3444643 0.66488171 -0.06487829
v -0.38678729 0.61271089 -0.01231933
v -0.36762231 0.59666247 0.05822147
v -0.45396234 0.59040323 -0.02279502
v -0.31136746 0.72331222 -0.1165898
v -0.25170629 0.76959193 -0.11222033
v -0.61345462 0.13307481 -0.2409455
v -0.63240074 0.26969772 -0.18119642
v -0.660852 0.21364752 -0.11272621
v -0.19191043 -1.1845214 -0.51243224
v -0.13361888 -1.24027435 -0.52107872
v -0.14677567 -1.34997527 -0.45410767
v -0.04551645 -1.21648614 -0.56396417
v -0.49580136 0.71618532 -0.26901688
v -0.50728611 0.67008704 -0.28417403
v -0.47236155 0.6807136 -0.31905592
v -0.4885862 0.11837028 0.48349173
v -0.4631049 0.2607741 0.48986165
v -0.48786041 0.43503422 0.44821128
v 0.14882488 0.88381587 0.43950513
v 0.00189869 1.29519164 -0.11249714
v -0.00190399 1.26446927 -0.11090829
v -0.31536024 0.61124125 0.52066338
v -0.28954517 0.5798161 0.5427682
v 0.3493899 0.67236715 -0.57113096
v 0.41123077 0.72494571 -0.52677507
v 0.48806734 0.67204475 -0.50483494
v 0.2540466 0.80377651 -0.53324082
v 0.37795004 0.82739132 -0.47986935
v -0.11314435 0.95617042 -0.12285449
v -0.11904656 1.04087724 -0.18799936
v -0.16388895 0.97961546 -0.20149851
v -0.18036272 0.90358829 -0.16628857
v -0.1372039 1.1055933 -0.23468297
v -0.20419507 0.97463903 -0.23092731
v 0.43341119 -1.60544853 -0.1093998
v 0.50958832 -1.52796828 -0.08087882
v 0.51125214 -1.51391085 -0.03114038
v 0.58149828 -1.44172306 -0.11236765
v -0.16416912 0.83109029 -0.06923866
v -0.11830466 0.85709969 -0.02391053
v -0.07098614 0.94244297 -0.03773996
v -0.12521924 0.8115071 0.04010454
v 0.33286199 0.94189708 -0.41177717
v 0.23761325 0.97349579 -0.41521208
v -0.15944867 0.92350296 -0.42076973
v -0.68580721 0.11303343 -0.01264594
v -0.67315371 0.2557167 -0.04484582
v -0.66372228 0.42935239 -0.00084108
v 0.61909072 -1.37999129 -0.17086949
v 0.66748473 -1.30132745 -0.17878128
v 0.25769415 -1.72241163 -0.17653621
v 0.31601171 -1.69628767 -0.15207388
v 0.23868562 -1.6759944 -0.24890915
v -0.05605046 -1.17576975 0.55543754
v 0.02827902 -1.1258389 0.57185322
v 0.02003214 -0.98189683 0.59736527
v -0.20372415 -0.25112357 0.63005304
v -0.19429083 -0.51363668 0.6253489
v -0.0918437 -0.64136034 0.63204901
v 0.442243 -1.17165437 0.4183404
v 0.49477535 -1.22990812 0.35338649
v -0.0560906 1.06152347 -0.11210577
v -0.07790617 1.09069512 -0.16233076
v -0.06504386 1.15300127 -0.17084688
v -0.04560702 -1.55753982 -0.34921075
v 0.02793022 -1.62258004 -0.31951102
v 0.3823033 -1.6456508 -0.145856
v 0.40672764 -1.58589512 -0.20632442
v 0.18429549 1.2304825 0.11121575
v 0.15696497 1.22097853 0.14653567
v 0.1894572 1.16649564 0.18916649
v 0.11569738 1.23038327 0.15199003
v 0.08018101 1.29217548 -0.16179628
v 0.11703503 1.26744313 -0.18729566
v 0.02450142 1.31112528 -0.13663394
v 0.06066444 1.30776671 -0.13405973
v 0.04525302 1.31516009 -0.07236493
v 0.08502272 1.30588227 -0.09617547
v -0.12976003 0.77527277 0.11288435
v -0.08137341 0.8287969 0.16694494
v 0.01839442 0.67465839 -0.59503674
v 0.1028083 0.72447479 -0.5869175
v 0.18458646 0.67088665 -0.60337888
v 0.11234976 0.8309201 -0.52993004
v 0.80211185 0.15266453 -0.01379362
v 0.82066432 0.0223382 -0.05773422
v 0.8091478 0.14538537 -0.13826841
v -0.26310699 0.9890502 -0.28791367
v -0.21749914 1.04138843 -0.27634935
v -0.14270969 1.12766168 -0.26085194
v -0.3697004 0.85463857 -0.27267703
v -0.24967171 0.99114133 -0.26893303
v -0.1372039 1.1055933 -0.23468297
v 0.00643185 1.31263995 -0.12270756
v 0.01253435 1.31247106 -0.10359806
v 0.0305998 1.31243238 -0.06754716
v -0.02981799 1.27726433 -0.16483285
v 0.00189869 1.29519164 -0.11249714
v 0.02245945 1.2933306 -0.06820909
v -0.07346287 1.22212004 -0.22374667
v -0.09278102 1.19544489 -0.23314781
v -0.07481235 1.20895202 -0.20638856
v -0.59595214 0.58387021 -0.07404392
v -0.58677316 0.6223838 -0.14775771
v -0.60627913 0.59688482 -0.12543563
v -0.62733063 0.56482821 -0.07285877
v -0.6485216 0.52482653 0.00717647
v -0.63884209 0.54417132 -0.01817599
v -0.63469009 0.51557008 0.07484535
v -0.62205388 0.54136466 0.00868176
v -0.61187527 0.49372779 0.22373538
v -0.64880688 0.48080543 0.16091752
v -0.64784557 0.46620213 0.18959305
v -0.63058157 0.46834991 0.23827448
v -0.17889971 0.75233787 0.50706403
v -0.20982116 0.72626974 0.50428963
v -0.26072132 0.67965021 0.51140519
v -0.10860808 0.82533833 0.45824933
v -0.19022962 0.74023339 0.47304354
v -0.27560921 0.66548585 0.47469721
v -0.59189679 0.48198857 0.30862119
v -0.57270275 0.49616155 0.32916
v -0.56770032 0.50291825 0.29021771
v -0.54359703 0.49739871 0.3769857
v -0.51490419 0.51949621 0.36011374
v -0.47474083 0.75305193 -0.26316412
v -0.44898245 0.78251858 -0.27254136
v -0.39261234 0.84554585 -0.29357804
v -0.51408281 0.69698283 -0.21021119
v -0.45898281 0.75723992 -0.24666858
v -0.48146987 0.53036579 0.43196949
v -0.45987061 0.54686957 0.44365396
v -0.46214625 0.54449646 0.41842044
v -0.41903537 0.56724696 0.470255
v -0.41238732 0.5718156 0.44808095
v 0.05725946 1.29784605 0.0020065
v 0.0715954 1.29134671 0.03111911
v 0.07952022 1.29765243 0.00025448
v 0.06148685 1.26639722 0.04858068
v 0.08056542 1.27175781 0.07876246
v 0.06707773 1.10679545 0.26967743
v 0.06414977 1.07308175 0.30304002
v 0.01795826 1.00290917 0.30567071
v 0.03348289 1.01214512 0.3478738
v -0.34439579 0.6152226 0.49680453
v -0.31184258 0.63643749 0.51017653
v 0.08809989 1.23714557 0.13920139
v 0.09408872 1.22501048 0.16250314
v 0.0661583 1.17858446 0.15830241
v 0.08528681 1.18819392 0.19852461
v -0.02736684 0.918662 0.42326857
v -0.04789142 0.88681889 0.45266148
v -0.09891189 0.82915847 0.48586847
v 0.29969637 1.01128702 0.27069115
v 0.22787775 1.07613638 0.25656752
v 0.42014371 -1.50492004 -0.29283553
v -0.5506532 -1.22550708 0.17305331
v 0.21445307 -1.68365789 0.16678014
v 0.3267591 -1.59907854 0.17736103
v 0.14165692 0.94915068 -0.44577615
v -0.11508687 -1.33184262 0.47412136
v -0.10501327 -1.45181868 0.39270392
v 0.71135424 -1.20883386 -0.19143315
v 0.71028315 -1.15102658 -0.26914
v -0.51310816 0.58039247 -0.03782984
v 0.22604206 -1.57901041 -0.3434077
v 0.06841514 1.23217486 0.10439605
v 0.04921064 1.21424755 0.05596913
v -0.45898281 0.75723992 -0.24666858
v -0.45880801 0.72316733 -0.21294882
v 0.58745518 0.84275189 0.10233161
v 0.65168321 0.73874589 0.10354217
v 0.64135195 -0.75581426 0.32009375
v -0.41808125 0.71720622 -0.3580562
v 0.0087425 -0.76978689 0.62439631
v 0.16446505 0.01624568 0.62442421
v 0.25452899 0.14547287 0.58742827
v 0.43188599 0.83512483 0.31956867
v 0.46973351 0.73173199 0.35664846
v 0.41368222 0.68250986 0.41959928
v -0.50623112 -0.25985103 0.49015397
v -0.49422207 -0.51823927 0.48774138
v 0.52827136 -1.47121734 0.04125706
v 0.6154942 -1.34724009 0.07850714
v 0.23832934 0.26617386 -0.66252346
v 0.26645497 0.47765652 -0.6328224
v 0.56360715 0.6191345 -0.46869546
v 0.35022578 0.48585955 0.50430835
v 0.34556729 0.63180684 0.47801291
v 0.35936969 -0.76483287 0.53672648
v 0.37172292 -0.97751235 0.50403418
v -0.31332899 -1.56253396 0.04742342
v -0.24009475 -1.62073595 0.09744735
v 0.15746834 -1.78278641 -0.00794658
v -0.07238834 0.62345127 -0.59095445
v -0.08811893 0.47855851 -0.61113363
v 0.67880904 0.00041797 -0.46945552
v -0.53893751 -1.18307146 -0.15904882
v -0.54740068 -1.23374701 -0.07589299
v -0.48399412 -1.35233324 -0.03983361
v -0.40583635 -1.22835336 0.39538224
v 0.67733412 -1.23187672 0.09772857
v 0.49439092 -0.75786487 -0.59515098
v -0.50618227 -1.12925613 -0.25321484
v 0.42955825 0.97111366 0.18626412
v 0.49393591 0.9523966 0.11187019
v 0.62621473 0.27191529 0.32094144
v 0.34431398 0.27269344 0.53678685
v 0.51681504 0.9810418 -0.09871492
v 0.61643798 0.85927892 -0.128464
v -0.04080077 0.88769574 0.22192377
v -0.63656093 -0.64318076 -0.15510125
v -0.65121605 -0.76804513 -0.04730411
v 0.71336831 -0.95893964 -0.35935257
v 0.69121007 -1.1016623 -0.34584113
v -0.65596204 -0.26619075 0.28678111
v -0.65423906 -0.51030415 0.26082581
v 0.78437784 0.2679824 -0.21655175
v 0.31842386 -1.21771213 -0.57333177
v -0.03045677 -0.51781314 -0.67129402
v -0.37644758 -1.49585236 -0.01122331
v -0.65425443 -0.02621997 0.28517905
v 0.68501088 0.74690793 -0.13935622
v -0.35354895 -0.51680549 -0.52991663
v 0.11317645 -1.71868462 0.16948795
v 0.37226509 -1.12190979 0.47744747
v -0.59555397 -0.51906658 -0.26270556
v -0.58704747 -0.25741768 -0.29879929
v 0.80777072 -0.7481395 -0.0859006
v -0.50912615 0.12949306 -0.38859914
v -0.4317899 0.25953579 -0.45169768
v 0.09741983 1.29834472 -0.04223969
v -0.20351165 0.00891397 0.62545739
v 0.73635546 -0.75142443 -0.37373654
v 0.0403621 -1.23549209 -0.57661668
v -0.69658578 -0.01749507 0.04517603
v -0.25522887 0.64741509 0.3652045
v -0.35938777 0.58129617 0.14303245
v 0.02692458 0.62241945 0.56980288
v -0.11505011 0.26588128 -0.62805334
v -0.28431181 -1.4852416 -0.24189586
v -0.19716703 -1.51262782 -0.29916514
v -0.54654182 0.50738591 0.23503628
v -0.56770032 0.50291825 0.29021771
v -0.57619197 0.00095847 -0.31427004
v -0.2600524 -1.13067948 -0.49500291
v -0.52339689 -0.01072882 0.46690512
v 0.27289796 0.62124558 -0.60684759
v -0.19846369 0.82891592 -0.11801769
v -0.13063024 -1.22584213 0.52897224
v -0.0405353 1.02272796 -0.05563989
v -0.12982139 -1.48253949 -0.36996417
v 0.21529357 1.23397271 0.07091457
v 0.78198926 0.27585146 0.03163212
v -0.31334167 0.93261056 -0.29874254
v 0.00065957 1.31048233 -0.14378145
v -0.02315006 1.28840693 -0.17767002
v -0.05257449 1.24705107 -0.21388959
v -0.56039486 0.63791707 -0.14902976
v -0.56703306 0.64616355 -0.16997179
v -0.53702113 0.68252925 -0.21333629
v -0.6580444 0.50149023 0.03383666
v -0.65741193 0.49431827 0.08661438
v -0.6253361 0.50105793 0.14590826
v -0.64857617 0.4941274 0.13490514
v -0.14934727 0.77566264 0.50840569
v -0.61003011 0.46702919 0.2879179
v -0.50133594 0.72295322 -0.25083811
v -0.50713687 0.50605331 0.41867753
v 0.04478274 1.30242414 -0.02398146
v 0.04171537 1.28372983 -0.01480843
v 0.06963157 1.13775045 0.23887215
v 0.05156211 1.09880605 0.23314154
v -0.35600851 0.60914231 0.46860902
v -0.37337119 0.59954642 0.48451259
v 0.0814001 1.24880221 0.11673523
v 0.06841514 1.23217486 0.10439605
v -0.00856303 0.95089146 0.39161232
v -0.03925107 0.90975274 0.3879321
v 0.38471507 0.94591384 0.26465588
vn -0.57999 -0.01876 0.81441
vn -0.56177 0.18814 0.80561
vn -0.6507 0.20867 0.7301
vn -0.69843 0.12865 0.70402
vn -0.5058 0.40687 0.76068
vn -0.65618 0.39223 0.64466
vn -0.69039 0.44461 0.57069
vn 0.53213 -0.15889 -0.83162
vn 0.68395 -0.20124 -0.70123
vn 0.62753 -0.36044 -0.69014
vn 0.54631 -0.37257 -0.75016
vn 0.71209 -0.44369 -0.54412
vn 0.64266 -0.49783 -0.58237
vn 0.49923 -0.57714 -0.64628
vn 0.65088 0.04838 0.75764
vn 0.62237 0.28324 0.72968
vn 0.61195 0.26048 0.74677
vn 0.60651 0.0911 0.78984
vn 0.5181 0.50188 0.69259
vn 0.52967 0.33074 0.78106
vn 0.47597 0.10798 0.87281
vn 0.16633 0.17868 -0.96975
vn 0.33259 0.00031 -0.94307
vn 0.26947 -0.1388 -0.95296
vn 0.17915 -0.14332 -0.97333
vn 0.34687 -0.28013 -0.8951
vn 0.18396 -0.42251 -0.88749
vn -0.79395 0.26609 0.54667
vn -0.80039 0.02773 0.59884
vn -0.74535 0.03417 0.66579
vn -0.92341 -0.00244 0.38381
vn -0.87448 -0.16047 0.45775
vn -0.77731 -0.2489 0.57779
vn 0.9682 0.17864 -0.17515
vn 0.92847 0.29417 0.22675
vn 0.93112 0.11137 0.34728
vn 0.96224 -0.0858 0.25831
vn 0.72275 0.5742 0.38462
vn 0.88582 0.13032 0.44536
vn 0.81185 -0.2869 0.50851
vn 0.64071 -0.76778 0.00165
vn 0.61354 -0.74519 0.26125
vn 0.57506 -0.7897 0.21372
vn 0.58582 -0.80797 0.06325
vn 0.53214 -0.71694 0.45035
vn 0.49458 -0.82644 0.26906
vn 0.45719 -0.88502 0.08785
vn -0.61046 0.71351 0.34387
vn -0.60291 0.70483 0.37378
vn -0.65221 0.63744 0.41025
vn -0.4932 0.85218 0.17475
vn -0.58672 0.76079 0.27742
vn -0.69638 0.65401 0.29552
vn 0.50021 -0.81406 -0.29513
vn 0.63356 -0.67442 -0.37916
vn 0.65857 -0.70066 -0.27453
vn 0.60493 -0.77851 -0.16726
vn 0.70258 -0.66183 -0.26146
vn -0.47514 0.76569 -0.43355
vn -0.58492 0.74969 -0.30957
vn -0.52412 0.81336 -0.25246
vn -0.44586 0.84743 -0.28823
vn -0.60359 0.7739 -0.19174
vn -0.53804 0.82747 -0.16062
vn -0.41049 0.88952 -0.20065
vn 0.50612 -0.40762 0.76006
vn 0.31646 -0.31426 0.89504
vn 0.2469 -0.44766 0.85944
vn 0.31117 -0.5589 0.76864
vn 0.16302 -0.16739 0.97232
vn 0.15627 -0.44733 0.88061
vn 0.13899 -0.6869 0.71334
vn -0.22895 -0.0317 -0.97292
vn -0.19193 -0.13043 -0.9727
vn -0.22367 -0.19483 -0.95499
vn -0.24605 -0.21598 -0.94489
vn -0.43622 0.06558 -0.89745
vn -0.34633 -0.09175 -0.93362
vn -0.36838 -0.27475 -0.88815
vn -0.93252 -0.08858 -0.35008
vn -0.90461 -0.28173 -0.31987
vn -0.92536 -0.26774 -0.26838
vn -0.95407 -0.17603 -0.2424
vn -0.85582 -0.22879 -0.46392
vn -0.88629 -0.18476 -0.42468
vn -0.88015 -0.06698 -0.46995
vn 0.66228 0.36585 0.65387
vn 0.61263 0.59042 0.52545
vn 0.60074 0.58994 0.53952
vn 0.6224 0.43081 0.65347
vn 0.49661 0.76661 0.40703
vn 0.51746 0.65946 0.54529
vn -0.35994 0.10019 -0.92758
vn -0.24694 0.10959 -0.96281
vn -0.2681 0.12319 -0.95548
vn -0.31258 0.18808 -0.93109
vn -0.30164 0.06286 -0.95135
vn -0.43563 0.13738 -0.88958
vn -0.87499 0.30547 -0.37561
vn -0.87988 0.34941 -0.32205
vn -0.92461 0.28752 -0.24986
vn -0.89885 0.21935 -0.37942
vn -0.87505 0.23758 -0.42171
vn -0.9423 0.20237 -0.26668
vn -0.90852 0.09471 -0.40696
vn -0.59261 -0.30971 -0.74357
vn -0.63813 -0.46634 -0.61263
vn -0.59338 -0.46951 -0.65381
vn -0.48284 -0.505 -0.71543
vn -0.76093 -0.37716 -0.52796
vn -0.64685 -0.39125 -0.65461
vn -0.52096 -0.39727 -0.7555
vn -0.56251 -0.4409 0.69942
vn -0.36081 -0.57898 0.73117
vn -0.28988 -0.50527 0.81282
vn -0.36603 -0.3745 0.85192
vn -0.17262 -0.72915 0.66222
vn -0.18687 -0.5396 0.82092
vn -0.18937 -0.33618 0.92256
vn -0.01013 -0.91083 0.41267
vn 0.06395 -0.8375 0.54268
vn 0.03503 -0.81193 0.5827
vn -0.01308 -0.8183 0.57465
vn 0.06633 -0.69978 0.71127
vn -0.03349 -0.68119 0.73134
vn -0.13242 0.86566 -0.48281
vn -0.25615 0.90956 -0.32724
vn -0.21977 0.93396 -0.28181
vn -0.14167 0.94295 -0.30128
vn -0.26667 0.94883 -0.16914
vn -0.13987 0.98539 -0.09721
vn -6E-05 -0.92351 -0.38358
vn 0.07426 -0.96133 -0.2652
vn 0.0388 -0.98429 -0.17225
vn -0.00325 -0.98405 -0.17786
vn 0.14884 -0.97988 -0.13295
vn 0.0703 -0.99617 -0.05199
vn -0.00572 -0.99988 0.01469
vn -0.07804 -0.96013 -0.26845
vn -0.108 -0.93082 -0.34915
vn -0.06984 -0.88382 -0.46259
vn -0.14928 -0.97955 -0.13489
vn -0.1509 -0.92902 -0.33787
vn -0.14341 -0.84369 -0.51732
vn -0.48436 -0.74936 0.4515
vn -0.30859 -0.86751 0.39012
vn -0.25074 -0.83072 0.49702
vn -0.32128 -0.74251 0.58776
vn -0.15824 -0.94595 0.2831
vn -0.15669 -0.85523 0.49399
vn -0.00354 -0.6595 -0.7517
vn 0.09404 -0.56457 -0.82001
vn 0.1256 -0.65811 -0.74237
vn 0.07965 -0.74708 -0.65995
vn 0.16963 -0.65224 -0.73879
vn 0.15912 -0.81757 -0.55341
vn -0.15281 0.5951 -0.78899
vn -0.27043 0.64122 -0.71813
vn -0.18141 0.73089 -0.65794
vn -0.11616 0.73161 -0.67175
vn -0.39745 0.63405 -0.66333
vn -0.22786 0.79907 -0.55639
vn -0.83452 -0.38658 -0.3926
vn -0.80399 -0.43444 -0.40603
vn -0.81615 -0.31241 -0.4861
vn -0.75194 -0.45012 -0.48165
vn -0.75954 -0.26962 -0.59196
vn 0.67171 -0.53439 0.51306
vn 0.71967 -0.52868 0.45008
vn 0.81951 -0.42011 0.38976
vn 0.6643 -0.6283 0.4049
vn 0.84718 -0.49925 0.18177
vn -0.0033 0.90891 0.41698
vn -0.076 0.81757 0.57079
vn -0.05108 0.7818 0.62143
vn -0.01129 0.79682 0.60411
vn -0.15647 0.68039 0.71595
vn -0.08276 0.65037 0.7551
vn -0.01414 0.6191 0.78518
vn -0.16209 0.18272 0.96971
vn -0.32221 0.29994 0.8979
vn -0.4312 0.17429 0.88526
vn -0.36026 0.05564 0.93119
vn 0.79438 0.52893 -0.29867
vn 0.84869 0.52723 0.0419
vn 0.61924 0.77242 -0.14108
vn 0.6898 0.70141 0.17944
vn -0.29046 -0.95687 0.00561
vn -0.33967 -0.93688 -0.08297
vn -0.26806 -0.94101 -0.20651
vn -0.49496 -0.86418 0.09064
vn -0.46355 -0.88282 -0.07589
vn -0.4127 -0.87769 -0.24358
vn 0.06916 -0.98875 0.1326
vn 0.03556 -0.97799 0.20558
vn -0.00802 -0.98011 0.19827
vn 0.1442 -0.94544 0.29215
vn 0.0657 -0.93489 0.34881
vn 0.56305 0.25115 -0.78733
vn 0.68205 -0.04655 -0.72982
vn 0.67153 0.00908 -0.74092
vn 0.58021 0.07081 -0.81138
vn -0.56825 -0.7965 -0.20659
vn -0.55172 -0.78298 -0.28732
vn -0.44952 -0.82833 -0.33437
vn -0.65112 -0.70054 -0.29203
vn -0.63931 -0.67415 -0.36987
vn -0.47484 -0.76318 -0.43828
vn -0.34384 0.26222 -0.90167
vn -0.39037 0.17896 -0.9031
vn -0.41874 0.27798 -0.86451
vn -0.49791 0.22706 -0.83698
vn 0.96882 -0.23709 0.07197
vn 0.94479 -0.21625 -0.24619
vn 0.87076 0.08724 -0.48392
vn 0.90599 -0.38043 -0.18563
vn 0.77014 -0.01261 -0.63774
vn -0.28764 0.95656 0.04752
vn -0.33825 0.94028 -0.03823
vn -0.44771 0.8939 -0.02219
vn -0.0887 0.42667 0.90005
vn -0.11712 0.48629 0.86591
vn -0.16254 0.45619 0.87491
vn 0.16974 0.68945 -0.70416
vn 0.3395 0.48016 -0.80881
vn 0.27936 0.42673 -0.86015
vn 0.17562 0.47127 -0.86433
vn 0.34742 0.27262 -0.8972
vn 0.33537 -0.52005 -0.78554
vn 0.26158 -0.64012 -0.72237
vn 0.31924 -0.71891 -0.61746
vn 0.31394 -0.74137 0.59314
vn 0.24617 -0.8245 0.5095
vn 0.3127 -0.8577 0.40814
vn 0.14313 -0.84906 0.50854
vn 0.0656 0.73575 0.67407
vn 0.03084 0.806 0.59111
vn 0.14808 0.81215 0.56435
vn 0.06939 0.87815 0.47333
vn 0.53622 0.62465 -0.5677
vn 0.33061 0.8149 -0.47606
vn 0.37742 0.82291 -0.42471
vn 0.49405 0.76411 -0.41479
vn 0.16706 0.9355 -0.31133
vn 0.30818 0.90642 -0.28885
vn 0.46445 0.85684 -0.22383
vn -0.67209 -0.66254 0.33066
vn -0.64835 -0.53978 0.53692
vn -0.69404 -0.47565 0.54042
vn -0.74809 -0.47687 0.46147
vn -0.68798 -0.33859 0.6419
vn -0.08531 -0.84315 0.53086
vn -0.05903 -0.81245 0.58004
vn -0.09264 -0.71112 0.69694
vn -0.08303 -0.98801 0.13013
vn -0.05154 -0.97754 0.20434
vn -0.08416 -0.93454 0.34576
vn -0.70329 -0.10241 0.70349
vn -0.73058 0.03216 0.68206
vn -0.52856 0.36436 -0.76673
vn -0.54667 0.41848 -0.72527
vn -0.58104 0.31235 -0.75155
vn -0.66125 0.31661 -0.68008
vn -0.61859 0.43298 -0.65565
vn -0.67445 0.26663 -0.6885
vn -0.40753 -0.00712 -0.91316
vn -0.28851 -0.00117 -0.95748
vn -0.17846 0.03458 -0.98334
vn -0.22215 0.06582 -0.97279
vn -0.24362 -0.02152 -0.96963
vn -0.17096 -0.01702 -0.98513
vn 0.01481 0.64064 -0.7677
vn 0.09699 0.45486 -0.88527
vn 0.07049 0.40991 -0.9094
vn 0.02736 0.42794 -0.90339
vn 0.10133 0.20996 -0.97244
vn 0.00831 0.21321 -0.97697
vn 0.60546 0.76061 0.23429
vn 0.57469 0.76613 0.28772
vn 0.60616 0.68665 0.40135
vn 0.52317 0.84563 0.10586
vn 0.49292 0.82553 0.27483
vn 0.15779 0.41358 0.89669
vn 0.31116 0.2701 0.91117
vn 0.39311 0.3825 0.83616
vn 0.32153 0.5079 0.79916
vn 0.02184 -0.23196 -0.97248
vn 0.10508 -0.06773 -0.99215
vn 0.13841 -0.15868 -0.97758
vn 0.10273 -0.31413 -0.9438
vn -0.09458 -0.0851 0.99187
vn -0.06685 -0.05104 0.99646
vn -0.09226 0.17839 0.97962
vn -0.0127 -0.30762 0.95143
vn -0.01886 -0.08236 0.99642
vn 0.00601 0.17145 0.98517
vn 0.30757 0.6932 0.65183
vn 0.24908 0.62671 0.73837
vn 0.15227 0.64171 0.75168
vn 0.17223 0.9769 0.12652
vn 0.07854 0.95947 0.27064
vn 0.11022 0.92742 0.35742
vn 0.15295 0.92269 0.35391
vn 0.66107 0.34431 -0.66667
vn 0.73103 0.30843 -0.60866
vn 0.64902 0.51246 -0.56228
vn -0.08921 0.00822 -0.99598
vn -0.04743 -0.11539 -0.99219
vn -0.0774 -0.16666 -0.98297
vn -0.12076 -0.14448 -0.98211
vn -0.05741 -0.30112 -0.95186
vn -0.11451 -0.30928 -0.94405
vn -0.37231 -0.16588 0.91316
vn -0.2917 -0.08248 0.95295
vn -0.19013 -0.10769 0.97583
vn 0.08659 0.98777 -0.12964
vn 0.11357 0.99067 -0.07529
vn 0.1634 0.98189 -0.09592
vn 0.00577 0.99981 0.01886
vn 0.08105 0.99517 0.05545
vn 0.82506 -0.52811 -0.20091
vn 0.87378 -0.36685 -0.31927
vn 0.80233 -0.22915 -0.55113
vn 0.29275 -0.95611 -0.01255
vn 0.36745 -0.92292 -0.11484
vn 0.49097 -0.86541 -0.1001
vn 0.30881 -0.92449 -0.22352
vn 0.07282 -0.27864 0.95763
vn 0.03367 -0.11067 0.99329
vn 0.07997 0.01148 0.99673
vn 0.08784 0.83612 -0.54147
vn 0.11609 0.86218 -0.49313
vn 0.17292 0.84148 -0.51187
vn 0.01383 0.92419 -0.38169
vn 0.08799 0.93461 -0.34461
vn 0.07441 -0.5045 0.8602
vn 0.04272 -0.53612 0.84306
vn -0.00924 -0.50475 0.86321
vn -0.06601 0.96961 -0.2356
vn -0.03359 0.9878 -0.15206
vn 0.0106 0.98553 -0.16916
vn -0.06723 0.99754 -0.02003
vn -0.93771 -0.23411 0.25669
vn -0.9144 -0.25164 0.31709
vn -0.91334 -0.40349 0.05485
vn -0.88827 -0.33105 0.31841
vn -0.83136 0.41774 -0.3665
vn -0.80709 0.40183 -0.4326
vn -0.83493 0.31787 -0.44927
vn -0.77483 0.35344 -0.52414
vn -0.06679 -0.75291 -0.65472
vn -0.09855 -0.6955 -0.71173
vn -0.07005 -0.60374 -0.79409
vn -0.12954 -0.69962 -0.70267
vn -0.18684 -0.56028 -0.80695
vn -0.39491 -0.52154 -0.75633
vn -0.46616 -0.33287 -0.81969
vn -0.37162 -0.46719 -0.80227
vn 0.56619 -0.82055 -0.07825
vn 0.07557 0.28753 0.95479
vn 0.03057 0.41331 0.91008
vn -0.01756 0.40189 0.91552
vn 0.0687 0.53817 0.84003
vn 0.29969 0.90689 0.2962
vn 0.24692 0.89849 0.36298
vn 0.30335 0.8324 0.46378
vn -0.10086 0.35109 -0.93089
vn -0.04621 0.31187 -0.949
vn -0.07581 0.19103 -0.97865
vn -0.1114 0.18336 -0.97671
vn -0.04807 0.09022 -0.99476
vn -0.71989 0.42408 -0.54947
vn -0.6805 0.45715 -0.57266
vn -0.70975 0.3862 -0.58916
vn -0.72256 -0.06277 -0.68845
vn -0.82776 0.0906 -0.55371
vn -0.78898 0.15249 -0.5952
vn -0.71458 0.12463 -0.68837
vn -0.7877 0.27325 -0.55214
vn -0.26029 -0.89294 -0.36729
vn -0.33364 -0.86177 -0.38215
vn -0.29234 -0.85001 -0.43821
vn -0.46069 -0.68105 -0.56915
vn -0.31246 -0.79207 -0.5244
vn -0.46755 -0.56693 -0.67822
vn -0.24903 -0.76775 -0.59038
vn -0.67609 -0.7178 -0.16634
vn -0.64304 -0.73529 -0.21412
vn -0.6018 -0.79353 -0.09022
vn -0.60506 -0.79618 -0.00048
vn -0.591 -0.80338 -0.07272
vn -0.07156 0.98399 0.16323
vn -0.04253 0.97328 0.22566
vn 0.00048 0.9785 0.20626
vn -0.14782 0.93574 0.32022
vn -0.07331 0.92259 0.37874
vn -0.97585 -0.09577 -0.1963
vn -0.97403 -0.00618 -0.22635
vn -0.92208 -0.04729 -0.3841
vn -0.84905 0.02536 -0.52771
vn 0.59696 0.69347 -0.40341
vn 0.6942 0.56508 -0.44583
vn -0.56078 0.82536 0.0656
vn -0.59227 0.79682 0.11954
vn -0.62345 0.77778 0.07985
vn -0.96545 0.07987 -0.24806
vn -0.95189 0.12 -0.28196
vn -0.91695 0.08281 -0.3903
vn -0.75627 -0.24086 -0.60831
vn -0.82586 -0.19197 -0.5302
vn -0.84714 -0.0638 -0.52753
vn -0.85918 -0.25586 -0.44311
vn -0.68067 -0.29837 -0.66908
vn -0.62895 -0.24704 -0.73715
vn -0.05325 0.77487 -0.62987
vn -0.08728 0.72584 -0.6823
vn -0.05622 0.62969 -0.77481
vn 0.30486 0.9496 -0.073
vn 0.36857 0.9292 -0.02733
vn 0.48456 0.87229 -0.06563
vn 0.32994 0.93882 0.09872
vn -0.41994 0.74488 -0.51847
vn -0.29382 0.82089 -0.48971
vn -0.28306 0.87135 -0.40077
vn -0.06599 -0.48581 -0.87157
vn -0.08669 -0.48988 -0.86747
vn -0.12125 -0.45612 -0.88162
vn -0.55993 -0.82158 -0.10715
vn -0.2819 -0.04039 -0.95859
vn -0.15669 -0.07948 -0.98444
vn -0.31645 -0.57173 -0.75696
vn -0.2013 -0.69618 -0.68906
vn -0.31159 0.71934 0.62086
vn -0.39488 0.61305 0.68428
vn -0.32124 0.53621 0.78057
vn -0.49066 0.72451 0.48409
vn -0.52649 0.57376 0.62739
vn -0.42939 -0.1848 -0.88401
vn -0.33307 -0.31111 -0.8901
vn -0.38658 -0.36629 -0.8464
vn -0.47592 -0.30516 -0.82485
vn 0.71895 -0.20279 0.66482
vn 0.67759 -0.2883 0.67658
vn 0.66601 -0.44408 0.59935
vn 0.6242 -0.24116 0.74311
vn -0.57391 -0.12478 -0.80936
vn -0.53884 -0.04443 -0.84124
vn -0.44732 -0.03175 -0.89381
vn -0.58745 0.02956 -0.80872
vn -0.60714 0.54349 0.57966
vn -0.6301 0.62857 0.45595
vn -0.51784 0.85478 -0.03445
vn -0.04613 0.49331 -0.86863
vn -0.07564 0.51762 -0.85226
vn -0.11271 0.49131 -0.86366
vn 0.5746 -0.12239 0.80923
vn 0.48725 -0.16126 0.85824
vn 0.83778 0.19205 0.51111
vn 0.8027 0.03558 0.59532
vn 0.71404 0.4609 0.52699
vn 0.31426 -0.84802 -0.42673
vn 0.24919 -0.90872 -0.33486
vn 0.15204 -0.92508 -0.348
vn 0.00523 -0.81874 -0.57413
vn 0.04242 -0.81804 -0.57359
vn 0.07534 -0.88046 -0.46809
vn 0.28911 -0.93514 0.20474
vn 0.37016 -0.87724 0.30566
vn -0.3109 -0.12337 -0.9424
vn -0.2762 -0.22539 -0.9343
vn 0.59097 0.80639 0.02204
vn 0.62756 0.7604 0.16721
vn 0.7395 0.00048 0.67316
vn 0.65812 0.17885 0.73136
vn -0.80619 -0.55498 0.20509
vn -0.76392 -0.63897 0.09019
vn -0.67837 -0.72668 0.10838
vn -0.81541 -0.57371 -0.07721
vn -0.85884 0.37576 0.34813
vn -0.78145 0.44569 0.43668
vn -0.94324 0.27139 0.19141
vn -0.94223 0.21106 0.26011
vn -0.99557 -0.09374 0.00694
vn -0.96018 -0.05871 0.27314
vn -0.62268 0.11997 -0.77322
vn -0.5571 0.22073 -0.80057
vn -0.30534 0.92374 0.23122
vn -0.37818 0.86642 0.32604
vn -0.30585 0.85177 0.42537
vn -0.51589 0.79393 0.32178
vn -0.09923 -0.51889 0.84906
vn -0.06409 -0.46861 0.88108
vn -0.09531 -0.31285 0.94501
vn -0.68189 0.32449 -0.65554
vn -0.66127 0.27956 -0.69611
vn -0.6288 0.35498 -0.69181
vn -0.86243 0.05703 -0.50295
vn -0.76306 -0.02562 -0.64583
vn -0.78044 -0.07293 -0.62097
vn -0.62491 0.52148 -0.58099
vn -0.5915 0.377 -0.71274
vn -0.66807 0.22792 -0.70833
vn -0.54398 0.3343 -0.76963
vn -0.56271 0.30237 -0.76937
vn -0.53324 0.27613 -0.79963
vn -0.62014 0.21795 -0.75361
vn -0.48707 0.14516 -0.86121
vn -0.34579 0.11778 -0.93089
vn -0.38615 0.02484 -0.9221
vn -0.68297 -0.13594 -0.71769
vn -0.71867 -0.01429 -0.6952
vn -0.68956 -0.1291 -0.71262
vn -0.50314 -0.09198 -0.8593
vn -0.61503 -0.07844 -0.78459
vn -0.91591 0.06859 -0.39547
vn -0.50615 -0.15409 -0.84857
vn -0.67165 0.32587 -0.66535
vn -0.66737 0.28883 -0.68644
vn -0.6728 0.40032 -0.62217
vn -0.67886 -0.30645 -0.66726
vn -0.5682 -0.20964 -0.79574
vn -0.64622 -0.1624 -0.74567
vn -0.61719 -0.22297 -0.75456
vn -0.81896 -0.15637 -0.55214
vn -0.87737 -0.25101 -0.40891
vn -0.96177 -0.25681 0.09506
vn -0.82464 -0.26769 -0.4983
vn -0.65183 -0.33951 -0.67812
vn -0.67009 -0.40633 -0.62118
vn -0.68926 -0.31348 -0.65318
vn -0.63909 -0.18232 -0.74721
vn -0.64956 -0.20229 -0.73291
vn -0.74822 -0.27317 -0.6046
vn -0.7352 -0.38831 -0.5556
vn -0.66587 -0.37153 -0.64698
vn -0.75 -0.20872 -0.62764
vn -0.70838 -0.36566 -0.60374
vn -0.69076 -0.37013 -0.62118
vn -0.60597 -0.7731 0.18739
vn -0.63695 -0.76443 0.0997
vn 0.62278 0.27339 0.73308
vn 0.4372 0.12092 -0.8912
vn 0.74108 -0.65552 0.14521
vn 0.67991 -0.68139 0.27098
vn -0.60582 0.72202 0.33417
vn 0.5139 -0.71357 -0.47616
vn 0.59912 -0.65396 -0.46194
vn 0.37912 -0.179 0.90787
vn 0.30784 -0.03956 0.95062
vn -0.87067 -0.31522 -0.37758
vn 0.63377 0.57503 0.51738
vn -0.36583 0.03361 -0.93007
vn -0.25885 0.10533 -0.96016
vn -0.6792 -0.47118 -0.56274
vn -0.54081 -0.60486 0.58452
vn -0.41665 -0.637 0.64856
vn 0.09322 -0.86684 0.48979
vn -0.32871 0.88369 -0.33322
vn 0.10927 -0.92829 -0.35543
vn -0.04529 -0.98367 -0.17416
vn -0.07945 -0.99534 -0.0546
vn -0.49596 -0.82266 0.27793
vn -0.37322 -0.8818 0.28834
vn -0.30565 -0.93259 0.192
vn 0.01088 -0.452 -0.89195
vn 0.05748 -0.45406 -0.88912
vn 0.63312 -0.52229 0.57128
vn 0.53631 -0.58333 0.60999
vn -0.10267 0.84914 0.51809
vn -0.14582 0.83377 0.5325
vn -0.25435 0.43322 0.86466
vn -0.15104 -0.98545 0.07795
vn -0.24215 -0.96611 0.08939
vn 0.09803 -0.99292 0.06705
vn 0.13963 -0.98694 0.08029
vn 0.67292 0.13374 -0.72753
vn 0.6928 -0.10377 -0.71363
vn 0.92532 -0.25367 0.28185
vn -0.23784 0.96303 0.12651
vn -0.14059 0.98333 0.1153
vn -0.06232 0.37889 0.92334
vn 0.33381 0.67907 -0.65378
vn 0.41358 0.51009 -0.75416
vn 0.54293 0.42514 -0.72422
vn 0.42022 -0.39432 -0.81727
vn 0.39692 -0.63841 0.65946
vn 0.10733 0.64581 0.75592
vn 0.27656 0.79928 -0.53355
vn -0.61138 -0.68381 0.39826
vn -0.61419 -0.5924 0.52137
vn -0.11251 -0.87005 0.47995
vn -0.11001 -0.99183 0.06454
vn -0.66533 -0.20627 0.71749
vn -0.5793 -0.21748 0.78557
vn -0.50074 0.29632 -0.8133
vn 0.09327 0.67629 -0.73071
vn 0.12465 0.5074 -0.85265
vn 0.15798 0.13513 0.97815
vn 0.24242 0.12722 0.96179
vn 0.02468 -0.02285 -0.99943
vn 0.07144 -0.00525 -0.99743
vn -0.12733 -0.14025 0.9819
vn 0.38234 0.73576 0.55899
vn 0.04493 0.98101 0.18869
vn 0.63118 0.3518 -0.69127
vn -0.02013 -0.0333 -0.99924
vn -0.45263 -0.23966 0.85889
vn 0.05554 0.9805 -0.18851
vn 0.78013 -0.6177 -0.09922
vn 0.23008 -0.9689 0.09105
vn 0.06237 0.80517 -0.58975
vn 0.02276 0.82087 -0.57066
vn 0.10883 -0.43428 0.89418
vn -0.05756 0.9003 -0.43146
vn -0.09649 0.94491 -0.31278
vn -0.94415 -0.2132 0.25126
vn -0.0332 -0.82118 -0.5697
vn 0.11674 0.14139 0.98305
vn 0.37049 0.89669 0.24225
vn -0.01735 0.42847 -0.90339
vn -0.77214 0.38225 -0.50762
vn -0.8641 0.04491 -0.50132
vn -0.22386 -0.92124 -0.31811
vn -0.09801 0.98991 0.10229
vn 0.56664 0.73721 -0.36803
vn 0.57776 0.78571 -0.22102
vn -0.97114 0.07408 -0.22671
vn -0.0196 0.8322 -0.55412
vn 0.25693 0.95678 -0.13621
vn -0.03632 -0.43674 -0.89886
vn -0.24279 0.81077 0.53265
vn -0.56497 -0.2244 -0.79401
vn 0.38744 -0.76952 -0.50767
vn -0.35226 -0.03257 -0.93533
vn 0.55491 0.82799 -0.08073
vn -0.82186 -0.45915 0.33724
vn -0.12835 -0.56683 0.81378
vn -0.65637 0.433 -0.61781
vn -0.91247 0.34402 -0.22147
vn -0.82771 0.50577 -0.24309
vn -0.72857 0.62785 -0.27386
vn -0.70454 0.15969 -0.69146
vn -0.6675 0.27848 -0.69057
vn -0.37423 0.33782 -0.86361
vn -0.4724 0.21719 -0.85421
vn -0.58531 0.12666 -0.80085
vn -0.66196 -0.37697 -0.64784
vn -0.3513 -0.06311 -0.93413
vn -0.63178 0.37909 -0.67612
vn -0.41915 -0.2682 -0.8674
vn -0.73867 -0.11227 -0.66466
vn -0.61598 -0.28789 -0.73327
vn -0.6592 -0.1887 -0.72791
vn -0.73158 -0.2761 -0.62334
vn -0.71525 -0.1873 -0.67331
vn -0.57605 -0.76894 0.27731
vt 0 1
vt 0.28125 0.46878
vt 0.27138 0.45114
vt 0.27956 0.42836
vt 0.28984 0.4214
vt 0.25832 0.44458
vt 0.27837 0.40931
vt 0.29843 0.37403
vt 0.45765 0.46811
vt 0.46162 0.4147
vt 0.47287 0.4226
vt 0.47669 0.44773
vt 0.46884 0.36759
vt 0.48102 0.40205
vt 0.4932 0.43651
vt 0.27979 0.60037
vt 0.28396 0.53606
vt 0.2972 0.53402
vt 0.30421 0.56355
vt 0.30523 0.50409
vt 0.33069 0.53284
vt 0.47394 0.633
vt 0.46279 0.61028
vt 0.47265 0.59499
vt 0.4839 0.60245
vt 0.44666 0.57593
vt 0.47049 0.57082
vt 0.49387 0.5719
vt 0.38592 0.31289
vt 0.40212 0.3456
vt 0.38835 0.3559
vt 0.36976 0.35043
vt 0.41964 0.3796
vt 0.39005 0.37873
vt 0.35868 0.375
vt 0.44505 0.37636
vt 0.44089 0.35609
vt 0.45023 0.34585
vt 0.42689 0.34813
vt 0.43163 0.32411
vt 0.31064 0.58932
vt 0.3009 0.61803
vt 0.32778 0.58637
vt 0.32202 0.63569
vt 0.35702 0.61436
vt 0.36731 0.64155
vt 0.35577 0.66523
vt 0.38946 0.59538
vt 0.38823 0.64681
vt 0.38952 0.69477
vt 0.2658 0.55011
vt 0.26149 0.51704
vt 0.26774 0.50245
vt 0.27254 0.51624
vt 0.25718 0.48397
vt 0.26777 0.48067
vt 0.45421 0.63105
vt 0.44206 0.62637
vt 0.45645 0.65614
vt 0.43896 0.67928
vt 0.34704 0.35536
vt 0.34173 0.34423
vt 0.32811 0.37529
vt 0.29754 0.37557
vt 0.41583 0.63658
vt 0.40635 0.65615
vt 0.41424 0.68702
vt 0.39203 0.47358
vt 0.42176 0.52619
vt 0.41123 0.54838
vt 0.39136 0.53682
vt 0.41945 0.58434
vt 0.48353 0.46713
vt 0.48098 0.48685
vt 0.49614 0.46747
vt 0.49909 0.49843
vt 0.47506 0.5233
vt 0.46634 0.53935
vt 0.45119 0.52281
vt 0.40736 0.42256
vt 0.42384 0.43731
vt 0.42689 0.47028
vt 0.4375 0.42068
vt 0.39118 0.4067
vt 0.37546 0.41942
vt 0.25775 0.46428
vt 0.26561 0.46559
vt 0.32956 0.44066
vt 0.31436 0.41022
vt 0.32832 0.39719
vt 0.34364 0.40987
vt 0.29788 0.37614
vt 0.32828 0.37557
vt 0.35699 0.45403
vt 0.3497 0.47984
vt 0.33039 0.48201
vt 0.36071 0.50401
vt 0.30647 0.45365
vt 0.30271 0.42801
vt 0.28956 0.42246
vt 0.37089 0.53248
vt 0.3597 0.5609
vt 0.4487 0.40334
vt 0.2728 0.57524
vt 0.27595 0.54084
vt 0.40877 0.3185
vt 0.41305 0.33736
vt 0.34778 0.58698
vt 0.42644 0.61694
vt 0.43321 0.50591
vt 0.48349 0.51335
vt 0.49648 0.53517
vt 0.35927 0.42756
vt 0.31325 0.47962
usemtl mat0
f 1/1/1 2/1/2 3/1/3
f 1/1/1 3/1/3 4/1/4
f 5/1/5 6/1/6 3/1/3
f 5/1/5 3/1/3 2/1/2
f 7/1/7 4/1/4 3/1/3
f 7/1/7 3/1/3 6/1/6
f 8/1/8 9/1/9 10/1/10
f 8/1/8 10/1/10 11/1/11
f 12/1/12 13/1/13 10/1/10
f 12/1/12 10/1/10 9/1/9
f 14/1/14 11/1/11 10/1/10
f 14/1/14 10/1/10 13/1/13
f 15/1/15 16/1/16 17/1/17
f 15/1/15 17/1/17 18/1/18
f 19/1/19 20/1/20 17/1/17
f 19/1/19 17/1/17 16/1/16
f 21/1/21 18/1/18 17/1/17
f 21/1/21 17/1/17 20/1/20
f 22/1/22 23/1/23 24/1/24
f 22/1/22 24/1/24 25/1/25
f 8/1/8 26/1/26 24/1/24
f 8/1/8 24/1/24 23/1/23
f 27/1/27 25/1/25 24/1/24
f 27/1/27 24/1/24 26/1/26
f 7/1/7 28/1/28 29/1/29
f 7/1/7 29/1/29 30/1/30
f 31/1/31 32/1/32 29/1/29
f 31/1/31 29/1/29 28/1/28
f 33/1/33 30/1/30 29/1/29
f 33/1/33 29/1/29 32/1/32
f 34/1/34 35/1/35 36/1/36
f 34/1/34 36/1/36 37/1/37
f 38/1/38 39/1/39 36/1/36
f 38/1/38 36/1/36 35/1/35
f 40/1/40 37/1/37 36/1/36
f 40/1/40 36/1/36 39/1/39
f 41/1/41 42/1/42 43/1/43
f 41/1/41 43/1/43 44/1/44
f 45/1/45 46/1/46 43/1/43
f 45/1/45 43/1/43 42/1/42
f 47/1/47 44/1/44 43/1/43
f 47/1/47 43/1/43 46/1/46
f 7/1/7 48/1/48 49/1/49
f 7/1/7 49/1/49 50/1/50
f 51/1/51 52/1/52 49/1/49
f 51/1/51 49/1/49 48/1/48
f 53/1/53 50/1/50 49/1/49
f 53/1/53 49/1/49 52/1/52
f 54/1/54 55/1/55 56/1/56
f 54/1/54 56/1/56 57/1/57
f 12/1/12 58/1/58 56/1/56
f 12/1/12 56/1/56 55/1/55
f 41/1/41 57/1/57 56/1/56
f 41/1/41 56/1/56 58/1/58
f 59/1/59 60/1/60 61/1/61
f 59/1/59 61/1/61 62/1/62
f 63/1/63 64/1/64 61/1/61
f 63/1/63 61/1/61 60/1/60
f 65/1/65 62/1/62 61/1/61
f 65/1/65 61/1/61 64/1/64
f 66/1/66 67/1/67 68/1/68
f 66/1/66 68/1/68 69/1/69
f 70/1/70 71/1/71 68/1/68
f 70/1/70 68/1/68 67/1/67
f 72/1/72 69/1/69 68/1/68
f 72/1/72 68/1/68 71/1/71
f 73/2/73 74/3/74 75/4/75
f 73/2/73 75/4/75 76/5/76
f 77/6/77 78/7/78 75/4/75
f 77/6/77 75/4/75 74/3/74
f 79/8/79 76/5/76 75/4/75
f 79/8/79 75/4/75 78/7/78
f 80/9/80 81/10/81 82/11/82
f 80/9/80 82/11/82 83/12/83
f 84/13/84 85/14/85 82/11/82
f 84/13/84 82/11/82 81/10/81
f 86/15/86 83/12/83 82/11/82
f 86/15/86 82/11/82 85/14/85
f 87/1/87 88/1/88 89/1/89
f 87/1/87 89/1/89 90/1/90
f 91/1/91 92/1/92 89/1/89
f 91/1/91 89/1/89 88/1/88
f 19/1/19 90/1/90 89/1/89
f 19/1/19 89/1/89 92/1/92
f 93/16/93 94/17/94 95/18/95
f 93/16/93 95/18/95 96/19/96
f 73/2/73 97/20/97 95/18/95
f 73/2/73 95/18/95 94/17/94
f 98/21/98 96/19/96 95/18/95
f 98/21/98 95/18/95 97/20/97
f 99/22/99 100/23/100 101/24/101
f 99/22/99 101/24/101 102/25/102
f 103/26/103 104/27/104 101/24/101
f 103/26/103 101/24/101 100/23/100
f 105/28/105 102/25/102 101/24/101
f 105/28/105 101/24/101 104/27/104
f 106/29/106 107/30/107 108/31/108
f 106/29/106 108/31/108 109/32/109
f 110/33/110 111/34/111 108/31/108
f 110/33/110 108/31/108 107/30/107
f 112/35/112 109/32/109 108/31/108
f 112/35/112 108/31/108 111/34/111
f 113/1/113 114/1/114 115/1/115
f 113/1/113 115/1/115 116/1/116
f 117/1/117 118/1/118 115/1/115
f 117/1/117 115/1/115 114/1/114
f 119/1/119 116/1/116 115/1/115
f 119/1/119 115/1/115 118/1/118
f 120/1/120 121/1/121 122/1/122
f 120/1/120 122/1/122 123/1/123
f 72/1/72 124/1/124 122/1/122
f 72/1/72 122/1/122 121/1/121
f 125/1/125 123/1/123 122/1/122
f 125/1/125 122/1/122 124/1/124
f 126/1/126 127/1/127 128/1/128
f 126/1/126 128/1/128 129/1/129
f 65/1/65 130/1/130 128/1/128
f 65/1/65 128/1/128 127/1/127
f 131/1/131 129/1/129 128/1/128
f 131/1/131 128/1/128 130/1/130
f 132/1/132 133/1/133 134/1/134
f 132/1/132 134/1/134 135/1/135
f 136/1/136 137/1/137 134/1/134
f 136/1/136 134/1/134 133/1/133
f 138/1/138 135/1/135 134/1/134
f 138/1/138 134/1/134 137/1/137
f 132/1/132 139/1/139 140/1/140
f 132/1/132 140/1/140 141/1/141
f 142/1/142 143/1/143 140/1/140
f 142/1/142 140/1/140 139/1/139
f 144/1/144 141/1/141 140/1/140
f 144/1/144 140/1/140 143/1/143
f 145/1/145 146/1/146 147/1/147
f 145/1/145 147/1/147 148/1/148
f 149/1/149 150/1/150 147/1/147
f 149/1/149 147/1/147 146/1/146
f 117/1/117 148/1/148 147/1/147
f 117/1/117 147/1/147 150/1/150
f 151/1/151 152/1/152 153/1/153
f 151/1/151 153/1/153 154/1/154
f 27/1/27 155/1/155 153/1/153
f 27/1/27 153/1/153 152/1/152
f 156/1/156 154/1/154 153/1/153
f 156/1/156 153/1/153 155/1/155
f 157/1/157 158/1/158 159/1/159
f 157/1/157 159/1/159 160/1/160
f 161/1/161 162/1/162 159/1/159
f 161/1/161 159/1/159 158/1/158
f 126/1/126 160/1/160 159/1/159
f 126/1/126 159/1/159 162/1/162
f 84/13/84 163/36/163 164/37/164
f 84/13/84 164/37/164 165/38/165
f 110/33/110 166/39/166 164/37/164
f 110/33/110 164/37/164 163/36/163
f 167/40/167 165/38/165 164/37/164
f 167/40/167 164/37/164 166/39/166
f 40/1/40 168/1/168 169/1/169
f 40/1/40 169/1/169 170/1/170
f 45/1/45 171/1/171 169/1/169
f 45/1/45 169/1/169 168/1/168
f 172/1/172 170/1/170 169/1/169
f 172/1/172 169/1/169 171/1/171
f 173/1/173 174/1/174 175/1/175
f 173/1/173 175/1/175 176/1/176
f 177/1/177 178/1/178 175/1/175
f 177/1/177 175/1/175 174/1/174
f 179/1/179 176/1/176 175/1/175
f 179/1/179 175/1/175 178/1/178
f 180/1/180 181/1/181 182/1/182
f 180/1/180 182/1/182 183/1/183
f 5/1/5 2/1/2 182/1/182
f 5/1/5 182/1/182 181/1/181
f 1/1/1 183/1/183 182/1/182
f 1/1/1 182/1/182 2/1/2
f 34/1/34 184/1/184 185/1/185
f 34/1/34 185/1/185 35/1/35
f 186/1/186 187/1/187 185/1/185
f 186/1/186 185/1/185 184/1/184
f 38/1/38 35/1/35 185/1/185
f 38/1/38 185/1/185 187/1/187
f 142/1/142 188/1/188 189/1/189
f 142/1/142 189/1/189 190/1/190
f 191/1/191 192/1/192 189/1/189
f 191/1/191 189/1/189 188/1/188
f 193/1/193 190/1/190 189/1/189
f 193/1/193 189/1/189 192/1/192
f 138/1/138 194/1/194 195/1/195
f 138/1/138 195/1/195 196/1/196
f 197/1/197 198/1/198 195/1/195
f 197/1/197 195/1/195 194/1/194
f 120/1/120 196/1/196 195/1/195
f 120/1/120 195/1/195 198/1/198
f 199/1/199 200/1/200 201/1/201
f 199/1/199 201/1/201 202/1/202
f 12/1/12 9/1/9 201/1/201
f 12/1/12 201/1/201 200/1/200
f 8/1/8 202/1/202 201/1/201
f 8/1/8 201/1/201 9/1/9
f 193/1/193 203/1/203 204/1/204
f 193/1/193 204/1/204 205/1/205
f 206/1/206 207/1/207 204/1/204
f 206/1/206 204/1/204 203/1/203
f 208/1/208 205/1/205 204/1/204
f 208/1/208 204/1/204 207/1/207
f 93/16/93 96/19/96 209/41/209
f 93/16/93 209/41/209 210/42/210
f 98/21/98 211/43/211 209/41/209
f 98/21/98 209/41/209 96/19/96
f 212/44/212 210/42/210 209/41/209
f 212/44/212 209/41/209 211/43/211
f 34/1/34 213/1/213 214/1/214
f 34/1/34 214/1/214 215/1/215
f 172/1/172 216/1/216 214/1/214
f 172/1/172 214/1/214 213/1/213
f 217/1/217 215/1/215 214/1/214
f 217/1/217 214/1/214 216/1/216
f 51/1/51 218/1/218 219/1/219
f 51/1/51 219/1/219 220/1/220
f 131/1/131 130/1/130 219/1/219
f 131/1/131 219/1/219 218/1/218
f 65/1/65 220/1/220 219/1/219
f 65/1/65 219/1/219 130/1/130
f 180/1/180 221/1/221 222/1/222
f 180/1/180 222/1/222 223/1/223
f 179/1/179 178/1/178 222/1/222
f 179/1/179 222/1/222 221/1/221
f 177/1/177 223/1/223 222/1/222
f 177/1/177 222/1/222 178/1/178
f 224/1/224 225/1/225 226/1/226
f 224/1/224 226/1/226 227/1/227
f 199/1/199 228/1/228 226/1/226
f 199/1/199 226/1/226 225/1/225
f 22/1/22 227/1/227 226/1/226
f 22/1/22 226/1/226 228/1/228
f 27/1/27 229/1/229 230/1/230
f 27/1/27 230/1/230 155/1/155
f 14/1/14 231/1/231 230/1/230
f 14/1/14 230/1/230 229/1/229
f 156/1/156 155/1/155 230/1/230
f 156/1/156 230/1/230 231/1/231
f 45/1/45 232/1/232 233/1/233
f 45/1/45 233/1/233 234/1/234
f 72/1/72 235/1/235 233/1/233
f 72/1/72 233/1/233 232/1/232
f 197/1/197 234/1/234 233/1/233
f 197/1/197 233/1/233 235/1/235
f 179/1/179 236/1/236 237/1/237
f 179/1/179 237/1/237 176/1/176
f 238/1/238 239/1/239 237/1/237
f 238/1/238 237/1/237 236/1/236
f 173/1/173 176/1/176 237/1/237
f 173/1/173 237/1/237 239/1/239
f 240/1/240 241/1/241 242/1/242
f 240/1/240 242/1/242 243/1/243
f 244/1/244 245/1/245 242/1/242
f 244/1/244 242/1/242 241/1/241
f 246/1/246 243/1/243 242/1/242
f 246/1/246 242/1/242 245/1/245
f 247/1/247 248/1/248 249/1/249
f 247/1/247 249/1/249 250/1/250
f 113/1/113 251/1/251 249/1/249
f 113/1/113 249/1/249 248/1/248
f 33/1/33 250/1/250 249/1/249
f 33/1/33 249/1/249 251/1/251
f 117/1/117 252/1/252 253/1/253
f 117/1/117 253/1/253 254/1/254
f 120/1/120 123/1/123 253/1/253
f 120/1/120 253/1/253 252/1/252
f 125/1/125 254/1/254 253/1/253
f 125/1/125 253/1/253 123/1/123
f 149/1/149 255/1/255 256/1/256
f 149/1/149 256/1/256 257/1/257
f 138/1/138 196/1/196 256/1/256
f 138/1/138 256/1/256 255/1/255
f 120/1/120 257/1/257 256/1/256
f 120/1/120 256/1/256 196/1/196
f 33/1/33 258/1/258 259/1/259
f 33/1/33 259/1/259 30/1/30
f 1/1/1 4/1/4 259/1/259
f 1/1/1 259/1/259 258/1/258
f 7/1/7 30/1/30 259/1/259
f 7/1/7 259/1/259 4/1/4
f 212/44/212 260/45/260 261/46/261
f 212/44/212 261/46/261 262/47/262
f 263/48/263 264/49/264 261/46/261
f 263/48/263 261/46/261 260/45/260
f 265/50/265 262/47/262 261/46/261
f 265/50/265 261/46/261 264/49/264
f 266/51/266 267/52/267 268/53/268
f 266/51/266 268/53/268 269/54/269
f 270/55/270 271/56/271 268/53/268
f 270/55/270 268/53/268 267/52/267
f 73/2/73 269/54/269 268/53/268
f 73/2/73 268/53/268 271/56/271
f 272/1/272 273/1/273 274/1/274
f 272/1/272 274/1/274 275/1/275
f 22/1/22 276/1/276 274/1/274
f 22/1/22 274/1/274 273/1/273
f 277/1/277 275/1/275 274/1/274
f 277/1/277 274/1/274 276/1/276
f 38/1/38 278/1/278 279/1/279
f 38/1/38 279/1/279 280/1/280
f 281/1/281 282/1/282 279/1/279
f 281/1/281 279/1/279 278/1/278
f 91/1/91 280/1/280 279/1/279
f 91/1/91 279/1/279 282/1/282
f 283/1/283 284/1/284 285/1/285
f 283/1/283 285/1/285 286/1/286
f 21/1/21 20/1/20 285/1/285
f 21/1/21 285/1/285 284/1/284
f 19/1/19 286/1/286 285/1/285
f 19/1/19 285/1/285 20/1/20
f 287/1/287 288/1/288 289/1/289
f 287/1/287 289/1/289 290/1/290
f 22/1/22 25/1/25 289/1/289
f 22/1/22 289/1/289 288/1/288
f 27/1/27 290/1/290 289/1/289
f 27/1/27 289/1/289 25/1/25
f 180/1/180 291/1/291 292/1/292
f 180/1/180 292/1/292 293/1/293
f 294/1/294 295/1/295 292/1/292
f 294/1/294 292/1/292 291/1/291
f 296/1/296 293/1/293 292/1/292
f 296/1/296 292/1/292 295/1/295
f 19/1/19 297/1/297 298/1/298
f 19/1/19 298/1/298 286/1/286
f 238/1/238 299/1/299 298/1/298
f 238/1/238 298/1/298 297/1/297
f 283/1/283 286/1/286 298/1/298
f 283/1/283 298/1/298 299/1/299
f 300/1/300 301/1/301 302/1/302
f 300/1/300 302/1/302 303/1/303
f 173/1/173 239/1/239 302/1/302
f 173/1/173 302/1/302 301/1/301
f 238/1/238 303/1/303 302/1/302
f 238/1/238 302/1/302 239/1/239
f 217/1/217 304/1/304 305/1/305
f 217/1/217 305/1/305 215/1/215
f 240/1/240 306/1/306 305/1/305
f 240/1/240 305/1/305 304/1/304
f 34/1/34 215/1/215 305/1/305
f 34/1/34 305/1/305 306/1/306
f 307/1/307 308/1/308 309/1/309
f 307/1/307 309/1/309 310/1/310
f 287/1/287 311/1/311 309/1/309
f 287/1/287 309/1/309 308/1/308
f 312/1/312 310/1/310 309/1/309
f 312/1/312 309/1/309 311/1/311
f 1/1/1 313/1/313 314/1/314
f 1/1/1 314/1/314 183/1/183
f 119/1/119 315/1/315 314/1/314
f 119/1/119 314/1/314 313/1/313
f 180/1/180 183/1/183 314/1/314
f 180/1/180 314/1/314 315/1/315
f 244/1/244 316/1/316 317/1/317
f 244/1/244 317/1/317 318/1/318
f 319/1/319 320/1/320 317/1/317
f 319/1/319 317/1/317 316/1/316
f 300/1/300 318/1/318 317/1/317
f 300/1/300 317/1/317 320/1/320
f 172/1/172 321/1/321 322/1/322
f 172/1/172 322/1/322 216/1/216
f 12/1/12 323/1/323 322/1/322
f 12/1/12 322/1/322 321/1/321
f 217/1/217 216/1/216 322/1/322
f 217/1/217 322/1/322 323/1/323
f 47/1/47 324/1/324 325/1/325
f 47/1/47 325/1/325 326/1/326
f 136/1/136 327/1/327 325/1/325
f 136/1/136 325/1/325 324/1/324
f 54/1/54 326/1/326 325/1/325
f 54/1/54 325/1/325 327/1/327
f 294/1/294 328/1/328 329/1/329
f 294/1/294 329/1/329 295/1/295
f 70/1/70 330/1/330 329/1/329
f 70/1/70 329/1/329 328/1/328
f 296/1/296 295/1/295 329/1/329
f 296/1/296 329/1/329 330/1/330
f 224/1/224 331/1/331 332/1/332
f 224/1/224 332/1/332 333/1/333
f 334/1/334 335/1/335 332/1/332
f 334/1/334 332/1/332 331/1/331
f 244/1/244 333/1/333 332/1/332
f 244/1/244 332/1/332 335/1/335
f 72/1/72 336/1/336 337/1/337
f 72/1/72 337/1/337 124/1/124
f 294/1/294 338/1/338 337/1/337
f 294/1/294 337/1/337 336/1/336
f 125/1/125 124/1/124 337/1/337
f 125/1/125 337/1/337 338/1/338
f 334/1/334 339/1/339 340/1/340
f 334/1/334 340/1/340 341/1/341
f 131/1/131 342/1/342 340/1/340
f 131/1/131 340/1/340 339/1/339
f 319/1/319 341/1/341 340/1/340
f 319/1/319 340/1/340 342/1/342
f 31/1/31 343/1/343 344/1/344
f 31/1/31 344/1/344 32/1/32
f 345/1/345 346/1/346 344/1/344
f 345/1/345 344/1/344 343/1/343
f 33/1/33 32/1/32 344/1/344
f 33/1/33 344/1/344 346/1/346
f 103/26/103 100/23/100 347/57/347
f 103/26/103 347/57/347 348/58/348
f 99/22/99 349/59/349 347/57/347
f 99/22/99 347/57/347 100/23/100
f 350/60/350 348/58/348 347/57/347
f 350/60/350 347/57/347 349/59/349
f 151/1/151 351/1/351 352/1/352
f 151/1/151 352/1/352 353/1/353
f 144/1/144 354/1/354 352/1/352
f 144/1/144 352/1/352 351/1/351
f 355/1/355 353/1/353 352/1/352
f 355/1/355 352/1/352 354/1/354
f 106/29/106 109/32/109 356/61/356
f 106/29/106 356/61/356 357/62/357
f 112/35/112 358/63/358 356/61/356
f 112/35/112 356/61/356 109/32/109
f 359/64/79 357/62/357 356/61/356
f 359/64/79 356/61/356 358/63/358
f 54/1/54 57/1/57 360/1/359
f 54/1/54 360/1/359 326/1/326
f 41/1/41 44/1/44 360/1/359
f 41/1/41 360/1/359 57/1/57
f 47/1/47 326/1/326 360/1/359
f 47/1/47 360/1/359 44/1/44
f 296/1/296 361/1/360 362/1/361
f 296/1/296 362/1/361 363/1/362
f 283/1/283 364/1/363 362/1/361
f 283/1/283 362/1/361 361/1/360
f 179/1/179 363/1/362 362/1/361
f 179/1/179 362/1/361 364/1/363
f 91/1/91 365/1/364 366/1/365
f 91/1/91 366/1/365 367/1/366
f 300/1/300 303/1/303 366/1/365
f 300/1/300 366/1/365 365/1/364
f 238/1/238 367/1/366 366/1/365
f 238/1/238 366/1/365 303/1/303
f 368/1/367 369/1/368 370/1/369
f 368/1/367 370/1/369 371/1/370
f 277/1/277 372/1/371 370/1/369
f 277/1/277 370/1/369 369/1/368
f 307/1/307 371/1/370 370/1/369
f 307/1/307 370/1/369 372/1/371
f 263/48/263 373/65/372 374/66/373
f 263/48/263 374/66/373 264/49/264
f 350/60/350 375/67/374 374/66/373
f 350/60/350 374/66/373 373/65/372
f 265/50/265 264/49/264 374/66/373
f 265/50/265 374/66/373 375/67/374
f 376/68/375 377/69/376 378/70/377
f 376/68/375 378/70/377 379/71/378
f 103/26/103 380/72/379 378/70/377
f 103/26/103 378/70/377 377/69/376
f 263/48/263 379/71/378 378/70/377
f 263/48/263 378/70/377 380/72/379
f 144/1/144 381/1/380 382/1/381
f 144/1/144 382/1/381 383/1/382
f 193/1/193 205/1/205 382/1/381
f 193/1/193 382/1/381 381/1/380
f 208/1/208 383/1/382 382/1/381
f 208/1/208 382/1/381 205/1/205
f 208/1/208 384/1/383 385/1/384
f 208/1/208 385/1/384 383/1/382
f 386/1/385 387/1/386 385/1/384
f 386/1/385 385/1/384 384/1/383
f 144/1/144 383/1/382 385/1/384
f 144/1/144 385/1/384 387/1/386
f 388/1/387 389/1/388 390/1/389
f 388/1/387 390/1/389 391/1/390
f 206/1/206 392/1/391 390/1/389
f 206/1/206 390/1/389 389/1/388
f 191/1/191 391/1/390 390/1/389
f 191/1/191 390/1/389 392/1/391
f 319/1/319 393/1/392 394/1/393
f 319/1/319 394/1/393 395/1/394
f 396/1/395 397/1/396 394/1/393
f 396/1/395 394/1/393 393/1/392
f 173/1/173 395/1/394 394/1/393
f 173/1/173 394/1/393 397/1/396
f 80/9/80 83/12/83 398/73/397
f 80/9/80 398/73/397 399/74/398
f 86/15/86 400/75/399 398/73/397
f 86/15/86 398/73/397 83/12/83
f 401/76/400 399/74/398 398/73/397
f 401/76/400 398/73/397 400/75/399
f 240/1/240 402/1/401 403/1/402
f 240/1/240 403/1/402 306/1/306
f 186/1/186 184/1/184 403/1/402
f 186/1/186 403/1/402 402/1/401
f 34/1/34 306/1/306 403/1/402
f 34/1/34 403/1/402 184/1/184
f 51/1/51 404/1/403 405/1/404
f 51/1/51 405/1/404 52/1/52
f 63/1/63 406/1/405 405/1/404
f 63/1/63 405/1/404 404/1/403
f 53/1/53 52/1/52 405/1/404
f 53/1/53 405/1/404 406/1/405
f 80/9/80 407/77/406 408/78/407
f 80/9/80 408/78/407 409/79/408
f 105/28/105 104/27/104 408/78/407
f 105/28/105 408/78/407 407/77/406
f 103/26/103 409/79/408 408/78/407
f 103/26/103 408/78/407 104/27/104
f 376/68/375 410/80/409 411/81/410
f 376/68/375 411/81/410 412/82/411
f 110/33/110 413/83/412 411/81/410
f 110/33/110 411/81/410 410/80/409
f 80/9/80 412/82/411 411/81/410
f 80/9/80 411/81/410 413/83/412
f 110/33/110 410/80/409 414/84/413
f 110/33/110 414/84/413 111/34/111
f 376/68/375 415/85/414 414/84/413
f 376/68/375 414/84/413 410/80/409
f 112/35/112 111/34/111 414/84/413
f 112/35/112 414/84/413 415/85/414
f 126/1/126 416/1/415 417/1/416
f 126/1/126 417/1/416 160/1/160
f 272/1/272 418/1/417 417/1/416
f 272/1/272 417/1/416 416/1/415
f 157/1/157 160/1/160 417/1/416
f 157/1/157 417/1/416 418/1/417
f 246/1/246 419/1/418 420/1/419
f 246/1/246 420/1/419 421/1/420
f 300/1/300 422/1/421 420/1/419
f 300/1/300 420/1/419 419/1/418
f 281/1/281 421/1/420 420/1/419
f 281/1/281 420/1/419 422/1/421
f 161/1/161 423/1/422 424/1/423
f 161/1/161 424/1/423 162/1/162
f 59/1/59 425/1/424 424/1/423
f 59/1/59 424/1/423 423/1/422
f 126/1/126 162/1/162 424/1/423
f 126/1/126 424/1/423 425/1/424
f 312/1/312 426/1/425 427/1/426
f 312/1/312 427/1/426 428/1/427
f 151/1/151 353/1/353 427/1/426
f 151/1/151 427/1/426 426/1/425
f 355/1/355 428/1/427 427/1/426
f 355/1/355 427/1/426 353/1/353
f 206/1/206 203/1/203 429/1/428
f 206/1/206 429/1/428 392/1/391
f 193/1/193 192/1/192 429/1/428
f 193/1/193 429/1/428 203/1/203
f 191/1/191 392/1/391 429/1/428
f 191/1/191 429/1/428 192/1/192
f 270/55/270 430/86/429 431/87/430
f 270/55/270 431/87/430 271/56/271
f 77/6/77 74/3/74 431/87/430
f 77/6/77 431/87/430 430/86/429
f 73/2/73 271/56/271 431/87/430
f 73/2/73 431/87/430 74/3/74
f 386/1/385 432/1/431 433/1/432
f 386/1/385 433/1/432 387/1/386
f 355/1/355 354/1/354 433/1/432
f 355/1/355 433/1/432 432/1/431
f 144/1/144 387/1/386 433/1/432
f 144/1/144 433/1/432 354/1/354
f 177/1/177 434/1/433 435/1/434
f 177/1/177 435/1/434 436/1/435
f 437/1/436 438/1/437 435/1/434
f 437/1/436 435/1/434 434/1/433
f 5/1/5 436/1/435 435/1/434
f 5/1/5 435/1/434 438/1/437
f 439/88/438 440/89/439 441/90/440
f 439/88/438 441/90/440 442/91/441
f 443/92/79 444/93/358 441/90/440
f 443/92/79 441/90/440 440/89/439
f 112/35/112 442/91/441 441/90/440
f 112/35/112 441/90/440 444/93/358
f 40/1/40 445/1/442 446/1/443
f 40/1/40 446/1/443 447/1/444
f 15/1/15 448/1/445 446/1/443
f 15/1/15 446/1/443 445/1/442
f 66/1/66 447/1/444 446/1/443
f 66/1/66 446/1/443 448/1/445
f 439/88/438 449/94/446 450/95/447
f 439/88/438 450/95/447 451/96/448
f 376/68/375 452/97/449 450/95/447
f 376/68/375 450/95/447 449/94/446
f 98/21/98 451/96/448 450/95/447
f 98/21/98 450/95/447 452/97/449
f 7/1/7 6/1/6 453/1/450
f 7/1/7 453/1/450 454/1/451
f 5/1/5 438/1/437 453/1/450
f 5/1/5 453/1/450 6/1/6
f 437/1/436 454/1/451 453/1/450
f 437/1/436 453/1/450 438/1/437
f 63/1/63 404/1/403 455/1/452
f 63/1/63 455/1/452 64/1/64
f 51/1/51 220/1/220 455/1/452
f 51/1/51 455/1/452 404/1/403
f 65/1/65 64/1/64 455/1/452
f 65/1/65 455/1/452 220/1/220
f 272/1/272 456/1/453 457/1/454
f 272/1/272 457/1/454 418/1/417
f 368/1/367 458/1/455 457/1/454
f 368/1/367 457/1/454 456/1/453
f 157/1/157 418/1/417 457/1/454
f 157/1/157 457/1/454 458/1/455
f 15/1/15 18/1/18 459/1/456
f 15/1/15 459/1/456 448/1/445
f 21/1/21 460/1/457 459/1/456
f 21/1/21 459/1/456 18/1/18
f 66/1/66 448/1/445 459/1/456
f 66/1/66 459/1/456 460/1/457
f 40/1/40 39/1/39 461/1/458
f 40/1/40 461/1/458 462/1/459
f 38/1/38 463/1/460 461/1/458
f 38/1/38 461/1/458 39/1/39
f 87/1/87 462/1/459 461/1/458
f 87/1/87 461/1/458 463/1/460
f 156/1/156 464/1/461 465/1/462
f 156/1/156 465/1/462 466/1/463
f 54/1/54 327/1/327 465/1/462
f 54/1/54 465/1/462 464/1/461
f 136/1/136 466/1/463 465/1/462
f 136/1/136 465/1/462 327/1/327
f 132/1/132 467/1/464 468/1/465
f 132/1/132 468/1/465 469/1/466
f 151/1/151 154/1/154 468/1/465
f 151/1/151 468/1/465 467/1/464
f 156/1/156 469/1/466 468/1/465
f 156/1/156 468/1/465 154/1/154
f 197/1/197 470/1/467 471/1/468
f 197/1/197 471/1/468 234/1/234
f 47/1/47 46/1/46 471/1/468
f 47/1/47 471/1/468 470/1/467
f 45/1/45 234/1/234 471/1/468
f 45/1/45 471/1/468 46/1/46
f 439/88/438 472/98/469 473/99/470
f 439/88/438 473/99/470 440/89/439
f 73/2/73 474/100/76 473/99/470
f 73/2/73 473/99/470 472/98/469
f 443/92/79 440/89/439 473/99/470
f 443/92/79 473/99/470 474/100/76
f 186/1/186 475/1/471 476/1/472
f 186/1/186 476/1/472 187/1/187
f 281/1/281 278/1/278 476/1/472
f 281/1/281 476/1/472 475/1/471
f 38/1/38 187/1/187 476/1/472
f 38/1/38 476/1/472 278/1/278
f 15/1/15 445/1/442 477/1/473
f 15/1/15 477/1/473 478/1/474
f 40/1/40 462/1/459 477/1/473
f 40/1/40 477/1/473 445/1/442
f 87/1/87 478/1/474 477/1/473
f 87/1/87 477/1/473 462/1/459
f 247/1/247 479/1/475 480/1/476
f 247/1/247 480/1/476 481/1/477
f 345/1/345 482/1/478 480/1/476
f 345/1/345 480/1/476 479/1/475
f 388/1/387 481/1/477 480/1/476
f 388/1/387 480/1/476 482/1/478
f 53/1/53 483/1/479 484/1/480
f 53/1/53 484/1/480 50/1/50
f 31/1/31 28/1/28 484/1/480
f 31/1/31 484/1/480 483/1/479
f 7/1/7 50/1/50 484/1/480
f 7/1/7 484/1/480 28/1/28
f 53/1/53 485/1/481 486/1/482
f 53/1/53 486/1/482 483/1/479
f 487/1/483 488/1/484 486/1/482
f 487/1/483 486/1/482 485/1/481
f 31/1/31 483/1/479 486/1/482
f 31/1/31 486/1/482 488/1/484
f 98/21/98 452/97/449 489/101/485
f 98/21/98 489/101/485 490/102/486
f 376/68/375 379/71/378 489/101/485
f 376/68/375 489/101/485 452/97/449
f 263/48/263 490/102/486 489/101/485
f 263/48/263 489/101/485 379/71/378
f 396/1/395 491/1/487 492/1/488
f 396/1/395 492/1/488 493/1/489
f 51/1/51 494/1/490 492/1/488
f 51/1/51 492/1/488 491/1/487
f 437/1/436 493/1/489 492/1/488
f 437/1/436 492/1/488 494/1/490
f 119/1/119 495/1/491 496/1/492
f 119/1/119 496/1/492 497/1/493
f 125/1/125 338/1/338 496/1/492
f 125/1/125 496/1/492 495/1/491
f 294/1/294 497/1/493 496/1/492
f 294/1/294 496/1/492 338/1/338
f 63/1/63 498/1/494 499/1/495
f 63/1/63 499/1/495 500/1/496
f 501/1/106 502/1/357 499/1/495
f 501/1/106 499/1/495 498/1/494
f 503/1/79 500/1/496 499/1/495
f 503/1/79 499/1/495 502/1/357
f 487/1/483 504/1/497 505/1/498
f 487/1/483 505/1/498 506/1/499
f 507/1/77 508/1/429 505/1/498
f 507/1/77 505/1/498 504/1/497
f 509/1/270 506/1/499 505/1/498
f 509/1/270 505/1/498 508/1/429
f 507/1/77 510/1/500 511/1/501
f 507/1/77 511/1/501 512/1/78
f 63/1/63 500/1/496 511/1/501
f 63/1/63 511/1/501 510/1/500
f 503/1/79 512/1/78 511/1/501
f 503/1/79 511/1/501 500/1/496
f 513/1/84 514/1/502 515/1/503
f 513/1/84 515/1/503 516/1/504
f 161/1/161 158/1/158 515/1/503
f 161/1/161 515/1/503 514/1/502
f 157/1/157 516/1/504 515/1/503
f 157/1/157 515/1/503 158/1/158
f 157/1/157 517/1/505 518/1/506
f 157/1/157 518/1/506 516/1/504
f 519/1/86 520/1/85 518/1/506
f 519/1/86 518/1/506 517/1/505
f 513/1/84 516/1/504 518/1/506
f 513/1/84 518/1/506 520/1/85
f 521/1/400 522/1/507 523/1/508
f 521/1/400 523/1/508 524/1/509
f 368/1/367 371/1/370 523/1/508
f 368/1/367 523/1/508 522/1/507
f 307/1/307 524/1/509 523/1/508
f 307/1/307 523/1/508 371/1/370
f 386/1/385 525/1/510 526/1/511
f 386/1/385 526/1/511 527/1/512
f 528/1/265 529/1/374 526/1/511
f 528/1/265 526/1/511 525/1/510
f 530/1/350 527/1/512 526/1/511
f 530/1/350 526/1/511 529/1/374
f 521/1/400 531/1/513 532/1/514
f 521/1/400 532/1/514 533/1/515
f 312/1/312 534/1/516 532/1/514
f 312/1/312 532/1/514 531/1/513
f 535/1/105 533/1/515 532/1/514
f 535/1/105 532/1/514 534/1/516
f 59/1/59 536/1/517 537/1/518
f 59/1/59 537/1/518 538/1/519
f 539/1/167 540/1/520 537/1/518
f 539/1/167 537/1/518 536/1/517
f 501/1/106 538/1/519 537/1/518
f 501/1/106 537/1/518 540/1/520
f 535/1/105 541/1/521 542/1/522
f 535/1/105 542/1/522 543/1/102
f 355/1/355 544/1/523 542/1/522
f 355/1/355 542/1/522 541/1/521
f 545/1/99 543/1/102 542/1/522
f 545/1/99 542/1/522 544/1/523
f 487/1/483 546/1/524 547/1/525
f 487/1/483 547/1/525 548/1/526
f 549/1/266 550/1/527 547/1/525
f 549/1/266 547/1/525 546/1/524
f 345/1/345 548/1/526 547/1/525
f 345/1/345 547/1/525 550/1/527
f 388/1/387 551/1/528 552/1/529
f 388/1/387 552/1/529 389/1/388
f 553/1/212 554/1/530 552/1/529
f 553/1/212 552/1/529 551/1/528
f 206/1/206 389/1/388 552/1/529
f 206/1/206 552/1/529 554/1/530
f 530/1/350 555/1/531 556/1/532
f 530/1/350 556/1/532 527/1/512
f 355/1/355 432/1/431 556/1/532
f 355/1/355 556/1/532 555/1/531
f 386/1/385 527/1/512 556/1/532
f 386/1/385 556/1/532 432/1/431
f 345/1/345 557/1/533 558/1/534
f 345/1/345 558/1/534 482/1/478
f 559/1/93 560/1/535 558/1/534
f 559/1/93 558/1/534 557/1/533
f 388/1/387 482/1/478 558/1/534
f 388/1/387 558/1/534 560/1/535
f 206/1/206 561/1/536 562/1/537
f 206/1/206 562/1/537 207/1/207
f 528/1/265 563/1/538 562/1/537
f 528/1/265 562/1/537 561/1/536
f 208/1/208 207/1/207 562/1/537
f 208/1/208 562/1/537 563/1/538
f 191/1/191 564/1/539 565/1/540
f 191/1/191 565/1/540 391/1/390
f 247/1/247 481/1/477 565/1/540
f 247/1/247 565/1/540 564/1/539
f 388/1/387 391/1/390 565/1/540
f 388/1/387 565/1/540 481/1/477
f 15/1/15 478/1/474 566/1/541
f 15/1/15 566/1/541 16/1/16
f 87/1/87 90/1/90 566/1/541
f 87/1/87 566/1/541 478/1/474
f 19/1/19 16/1/16 566/1/541
f 19/1/19 566/1/541 90/1/90
f 22/1/22 228/1/228 567/1/542
f 22/1/22 567/1/542 23/1/23
f 199/1/199 202/1/202 567/1/542
f 199/1/199 567/1/542 228/1/228
f 8/1/8 23/1/23 567/1/542
f 8/1/8 567/1/542 202/1/202
f 41/1/41 568/1/543 569/1/544
f 41/1/41 569/1/544 42/1/42
f 172/1/172 171/1/171 569/1/544
f 172/1/172 569/1/544 568/1/543
f 45/1/45 42/1/42 569/1/544
f 45/1/45 569/1/544 171/1/171
f 7/1/7 454/1/451 570/1/545
f 7/1/7 570/1/545 48/1/48
f 437/1/436 494/1/490 570/1/545
f 437/1/436 570/1/545 454/1/451
f 51/1/51 48/1/48 570/1/545
f 51/1/51 570/1/545 494/1/490
f 54/1/54 571/1/546 572/1/547
f 54/1/54 572/1/547 55/1/55
f 14/1/14 13/1/13 572/1/547
f 14/1/14 572/1/547 571/1/546
f 12/1/12 55/1/55 572/1/547
f 12/1/12 572/1/547 13/1/13
f 66/1/66 460/1/457 573/1/548
f 66/1/66 573/1/548 67/1/67
f 21/1/21 574/1/549 573/1/548
f 21/1/21 573/1/548 460/1/457
f 70/1/70 67/1/67 573/1/548
f 70/1/70 573/1/548 574/1/549
f 80/9/80 413/83/412 575/103/550
f 80/9/80 575/103/550 81/10/81
f 110/33/110 163/36/163 575/103/550
f 110/33/110 575/103/550 413/83/412
f 84/13/84 81/10/81 575/103/550
f 84/13/84 575/103/550 163/36/163
f 87/1/87 463/1/460 576/1/551
f 87/1/87 576/1/551 88/1/88
f 38/1/38 280/1/280 576/1/551
f 38/1/38 576/1/551 463/1/460
f 91/1/91 88/1/88 576/1/551
f 91/1/91 576/1/551 280/1/280
f 93/16/93 577/104/552 578/105/553
f 93/16/93 578/105/553 94/17/94
f 266/51/266 269/54/269 578/105/553
f 266/51/266 578/105/553 577/104/552
f 73/2/73 94/17/94 578/105/553
f 73/2/73 578/105/553 269/54/269
f 106/29/106 579/106/520 580/107/554
f 106/29/106 580/107/554 107/30/107
f 167/40/167 166/39/166 580/107/554
f 167/40/167 580/107/554 579/106/520
f 110/33/110 107/30/107 580/107/554
f 110/33/110 580/107/554 166/39/166
f 113/1/113 581/1/555 582/1/556
f 113/1/113 582/1/556 114/1/114
f 145/1/145 148/1/148 582/1/556
f 145/1/145 582/1/556 581/1/555
f 117/1/117 114/1/114 582/1/556
f 117/1/117 582/1/556 148/1/148
f 120/1/120 198/1/198 583/1/557
f 120/1/120 583/1/557 121/1/121
f 197/1/197 235/1/235 583/1/557
f 197/1/197 583/1/557 198/1/198
f 72/1/72 121/1/121 583/1/557
f 72/1/72 583/1/557 235/1/235
f 126/1/126 425/1/424 584/1/558
f 126/1/126 584/1/558 127/1/127
f 59/1/59 62/1/62 584/1/558
f 59/1/59 584/1/558 425/1/424
f 65/1/65 127/1/127 584/1/558
f 65/1/65 584/1/558 62/1/62
f 132/1/132 469/1/466 585/1/559
f 132/1/132 585/1/559 133/1/133
f 156/1/156 466/1/463 585/1/559
f 156/1/156 585/1/559 469/1/466
f 136/1/136 133/1/133 585/1/559
f 136/1/136 585/1/559 466/1/463
f 132/1/132 135/1/135 586/1/560
f 132/1/132 586/1/560 139/1/139
f 138/1/138 587/1/561 586/1/560
f 138/1/138 586/1/560 135/1/135
f 142/1/142 139/1/139 586/1/560
f 142/1/142 586/1/560 587/1/561
f 145/1/145 588/1/562 589/1/563
f 145/1/145 589/1/563 146/1/146
f 191/1/191 590/1/564 589/1/563
f 191/1/191 589/1/563 588/1/562
f 149/1/149 146/1/146 589/1/563
f 149/1/149 589/1/563 590/1/564
f 151/1/151 591/1/565 592/1/566
f 151/1/151 592/1/566 152/1/152
f 287/1/287 290/1/290 592/1/566
f 287/1/287 592/1/566 591/1/565
f 27/1/27 152/1/152 592/1/566
f 27/1/27 592/1/566 290/1/290
f 40/1/40 447/1/444 593/1/567
f 40/1/40 593/1/567 168/1/168
f 66/1/66 594/1/568 593/1/567
f 66/1/66 593/1/567 447/1/444
f 45/1/45 168/1/168 593/1/567
f 45/1/45 593/1/567 594/1/568
f 173/1/173 397/1/396 595/1/569
f 173/1/173 595/1/569 174/1/174
f 396/1/395 596/1/570 595/1/569
f 396/1/395 595/1/569 397/1/396
f 177/1/177 174/1/174 595/1/569
f 177/1/177 595/1/569 596/1/570
f 180/1/180 223/1/223 597/1/571
f 180/1/180 597/1/571 181/1/181
f 177/1/177 436/1/435 597/1/571
f 177/1/177 597/1/571 223/1/223
f 5/1/5 181/1/181 597/1/571
f 5/1/5 597/1/571 436/1/435
f 142/1/142 598/1/572 599/1/573
f 142/1/142 599/1/573 188/1/188
f 149/1/149 590/1/564 599/1/573
f 149/1/149 599/1/573 598/1/572
f 191/1/191 188/1/188 599/1/573
f 191/1/191 599/1/573 590/1/564
f 138/1/138 137/1/137 600/1/574
f 138/1/138 600/1/574 194/1/194
f 136/1/136 601/1/575 600/1/574
f 136/1/136 600/1/574 137/1/137
f 197/1/197 194/1/194 600/1/574
f 197/1/197 600/1/574 601/1/575
f 199/1/199 602/1/576 603/1/577
f 199/1/199 603/1/577 200/1/200
f 217/1/217 323/1/323 603/1/577
f 217/1/217 603/1/577 602/1/576
f 12/1/12 200/1/200 603/1/577
f 12/1/12 603/1/577 323/1/323
f 34/1/34 37/1/37 604/1/578
f 34/1/34 604/1/578 213/1/213
f 40/1/40 170/1/170 604/1/578
f 40/1/40 604/1/578 37/1/37
f 172/1/172 213/1/213 604/1/578
f 172/1/172 604/1/578 170/1/170
f 51/1/51 491/1/487 605/1/579
f 51/1/51 605/1/579 218/1/218
f 396/1/395 606/1/580 605/1/579
f 396/1/395 605/1/579 491/1/487
f 131/1/131 218/1/218 605/1/579
f 131/1/131 605/1/579 606/1/580
f 180/1/180 293/1/293 607/1/581
f 180/1/180 607/1/581 221/1/221
f 296/1/296 363/1/362 607/1/581
f 296/1/296 607/1/581 293/1/293
f 179/1/179 221/1/221 607/1/581
f 179/1/179 607/1/581 363/1/362
f 224/1/224 608/1/582 609/1/583
f 224/1/224 609/1/583 225/1/225
f 240/1/240 610/1/584 609/1/583
f 240/1/240 609/1/583 608/1/582
f 199/1/199 225/1/225 609/1/583
f 199/1/199 609/1/583 610/1/584
f 27/1/27 26/1/26 611/1/585
f 27/1/27 611/1/585 229/1/229
f 8/1/8 11/1/11 611/1/585
f 8/1/8 611/1/585 26/1/26
f 14/1/14 229/1/229 611/1/585
f 14/1/14 611/1/585 11/1/11
f 45/1/45 594/1/568 612/1/586
f 45/1/45 612/1/586 232/1/232
f 66/1/66 69/1/69 612/1/586
f 66/1/66 612/1/586 594/1/568
f 72/1/72 232/1/232 612/1/586
f 72/1/72 612/1/586 69/1/69
f 179/1/179 364/1/363 613/1/587
f 179/1/179 613/1/587 236/1/236
f 283/1/283 299/1/299 613/1/587
f 283/1/283 613/1/587 364/1/363
f 238/1/238 236/1/236 613/1/587
f 238/1/238 613/1/587 299/1/299
f 240/1/240 608/1/582 614/1/588
f 240/1/240 614/1/588 241/1/241
f 224/1/224 333/1/333 614/1/588
f 224/1/224 614/1/588 608/1/582
f 244/1/244 241/1/241 614/1/588
f 244/1/244 614/1/588 333/1/333
f 247/1/247 615/1/589 616/1/590
f 247/1/247 616/1/590 248/1/248
f 145/1/145 581/1/555 616/1/590
f 145/1/145 616/1/590 615/1/589
f 113/1/113 248/1/248 616/1/590
f 113/1/113 616/1/590 581/1/555
f 117/1/117 150/1/150 617/1/591
f 117/1/117 617/1/591 252/1/252
f 149/1/149 257/1/257 617/1/591
f 149/1/149 617/1/591 150/1/150
f 120/1/120 252/1/252 617/1/591
f 120/1/120 617/1/591 257/1/257
f 149/1/149 598/1/572 618/1/592
f 149/1/149 618/1/592 255/1/255
f 142/1/142 587/1/561 618/1/592
f 142/1/142 618/1/592 598/1/572
f 138/1/138 255/1/255 618/1/592
f 138/1/138 618/1/592 587/1/561
f 33/1/33 251/1/251 619/1/593
f 33/1/33 619/1/593 258/1/258
f 113/1/113 620/1/594 619/1/593
f 113/1/113 619/1/593 251/1/251
f 1/1/1 258/1/258 619/1/593
f 1/1/1 619/1/593 620/1/594
f 212/44/212 211/43/211 621/108/595
f 212/44/212 621/108/595 260/45/260
f 98/21/98 490/102/486 621/108/595
f 98/21/98 621/108/595 211/43/211
f 263/48/263 260/45/260 621/108/595
f 263/48/263 621/108/595 490/102/486
f 272/1/272 622/1/596 623/1/597
f 272/1/272 623/1/597 273/1/273
f 224/1/224 227/1/227 623/1/597
f 224/1/224 623/1/597 622/1/596
f 22/1/22 273/1/273 623/1/597
f 22/1/22 623/1/597 227/1/227
f 283/1/283 624/1/598 625/1/599
f 283/1/283 625/1/599 284/1/284
f 70/1/70 574/1/549 625/1/599
f 70/1/70 625/1/599 624/1/598
f 21/1/21 284/1/284 625/1/599
f 21/1/21 625/1/599 574/1/549
f 287/1/287 626/1/600 627/1/601
f 287/1/287 627/1/601 288/1/288
f 277/1/277 276/1/276 627/1/601
f 277/1/277 627/1/601 626/1/600
f 22/1/22 288/1/288 627/1/601
f 22/1/22 627/1/601 276/1/276
f 180/1/180 315/1/315 628/1/602
f 180/1/180 628/1/602 291/1/291
f 119/1/119 497/1/493 628/1/602
f 119/1/119 628/1/602 315/1/315
f 294/1/294 291/1/291 628/1/602
f 294/1/294 628/1/602 497/1/493
f 19/1/19 92/1/92 629/1/603
f 19/1/19 629/1/603 297/1/297
f 91/1/91 367/1/366 629/1/603
f 91/1/91 629/1/603 92/1/92
f 238/1/238 297/1/297 629/1/603
f 238/1/238 629/1/603 367/1/366
f 300/1/300 320/1/320 630/1/604
f 300/1/300 630/1/604 301/1/301
f 319/1/319 395/1/394 630/1/604
f 319/1/319 630/1/604 320/1/320
f 173/1/173 301/1/301 630/1/604
f 173/1/173 630/1/604 395/1/394
f 217/1/217 602/1/576 631/1/605
f 217/1/217 631/1/605 304/1/304
f 199/1/199 610/1/584 631/1/605
f 199/1/199 631/1/605 602/1/576
f 240/1/240 304/1/304 631/1/605
f 240/1/240 631/1/605 610/1/584
f 307/1/307 372/1/371 632/1/606
f 307/1/307 632/1/606 308/1/308
f 277/1/277 626/1/600 632/1/606
f 277/1/277 632/1/606 372/1/371
f 287/1/287 308/1/308 632/1/606
f 287/1/287 632/1/606 626/1/600
f 1/1/1 620/1/594 633/1/607
f 1/1/1 633/1/607 313/1/313
f 113/1/113 116/1/116 633/1/607
f 113/1/113 633/1/607 620/1/594
f 119/1/119 313/1/313 633/1/607
f 119/1/119 633/1/607 116/1/116
f 244/1/244 335/1/335 634/1/608
f 244/1/244 634/1/608 316/1/316
f 334/1/334 341/1/341 634/1/608
f 334/1/334 634/1/608 335/1/335
f 319/1/319 316/1/316 634/1/608
f 319/1/319 634/1/608 341/1/341
f 172/1/172 568/1/543 635/1/609
f 172/1/172 635/1/609 321/1/321
f 41/1/41 58/1/58 635/1/609
f 41/1/41 635/1/609 568/1/543
f 12/1/12 321/1/321 635/1/609
f 12/1/12 635/1/609 58/1/58
f 47/1/47 470/1/467 636/1/610
f 47/1/47 636/1/610 324/1/324
f 197/1/197 601/1/575 636/1/610
f 197/1/197 636/1/610 470/1/467
f 136/1/136 324/1/324 636/1/610
f 136/1/136 636/1/610 601/1/575
f 224/1/224 622/1/596 637/1/611
f 224/1/224 637/1/611 331/1/331
f 272/1/272 638/1/612 637/1/611
f 272/1/272 637/1/611 622/1/596
f 334/1/334 331/1/331 637/1/611
f 334/1/334 637/1/611 638/1/612
f 72/1/72 71/1/71 639/1/613
f 72/1/72 639/1/613 336/1/336
f 70/1/70 328/1/328 639/1/613
f 70/1/70 639/1/613 71/1/71
f 294/1/294 336/1/336 639/1/613
f 294/1/294 639/1/613 328/1/328
f 334/1/334 640/1/614 641/1/615
f 334/1/334 641/1/615 339/1/339
f 126/1/126 129/1/129 641/1/615
f 126/1/126 641/1/615 640/1/614
f 131/1/131 339/1/339 641/1/615
f 131/1/131 641/1/615 129/1/129
f 31/1/31 488/1/484 642/1/616
f 31/1/31 642/1/616 343/1/343
f 487/1/483 548/1/526 642/1/616
f 487/1/483 642/1/616 488/1/484
f 345/1/345 343/1/343 642/1/616
f 345/1/345 642/1/616 548/1/526
f 151/1/151 467/1/464 643/1/617
f 151/1/151 643/1/617 351/1/351
f 132/1/132 141/1/141 643/1/617
f 132/1/132 643/1/617 467/1/464
f 144/1/144 351/1/351 643/1/617
f 144/1/144 643/1/617 141/1/141
f 296/1/296 330/1/330 644/1/618
f 296/1/296 644/1/618 361/1/360
f 70/1/70 624/1/598 644/1/618
f 70/1/70 644/1/618 330/1/330
f 283/1/283 361/1/360 644/1/618
f 283/1/283 644/1/618 624/1/598
f 91/1/91 282/1/282 645/1/619
f 91/1/91 645/1/619 365/1/364
f 281/1/281 422/1/421 645/1/619
f 281/1/281 645/1/619 282/1/282
f 300/1/300 365/1/364 645/1/619
f 300/1/300 645/1/619 422/1/421
f 368/1/367 456/1/453 646/1/620
f 368/1/367 646/1/620 369/1/368
f 272/1/272 275/1/275 646/1/620
f 272/1/272 646/1/620 456/1/453
f 277/1/277 369/1/368 646/1/620
f 277/1/277 646/1/620 275/1/275
f 263/48/263 380/72/379 647/109/621
f 263/48/263 647/109/621 373/65/372
f 103/26/103 348/58/348 647/109/621
f 103/26/103 647/109/621 380/72/379
f 350/60/350 373/65/372 647/109/621
f 350/60/350 647/109/621 348/58/348
f 376/68/375 412/82/411 648/110/622
f 376/68/375 648/110/622 377/69/376
f 80/9/80 409/79/408 648/110/622
f 80/9/80 648/110/622 412/82/411
f 103/26/103 377/69/376 648/110/622
f 103/26/103 648/110/622 409/79/408
f 144/1/144 143/1/143 649/1/623
f 144/1/144 649/1/623 381/1/380
f 142/1/142 190/1/190 649/1/623
f 142/1/142 649/1/623 143/1/143
f 193/1/193 381/1/380 649/1/623
f 193/1/193 649/1/623 190/1/190
f 319/1/319 342/1/342 650/1/624
f 319/1/319 650/1/624 393/1/392
f 131/1/131 606/1/580 650/1/624
f 131/1/131 650/1/624 342/1/342
f 396/1/395 393/1/392 650/1/624
f 396/1/395 650/1/624 606/1/580
f 240/1/240 243/1/243 651/1/625
f 240/1/240 651/1/625 402/1/401
f 246/1/246 652/1/626 651/1/625
f 246/1/246 651/1/625 243/1/243
f 186/1/186 402/1/401 651/1/625
f 186/1/186 651/1/625 652/1/626
f 80/9/80 399/74/398 653/111/627
f 80/9/80 653/111/627 407/77/406
f 401/76/400 654/112/515 653/111/627
f 401/76/400 653/111/627 399/74/398
f 105/28/105 407/77/406 653/111/627
f 105/28/105 653/111/627 654/112/515
f 126/1/126 640/1/614 655/1/628
f 126/1/126 655/1/628 416/1/415
f 334/1/334 638/1/612 655/1/628
f 334/1/334 655/1/628 640/1/614
f 272/1/272 416/1/415 655/1/628
f 272/1/272 655/1/628 638/1/612
f 246/1/246 245/1/245 656/1/629
f 246/1/246 656/1/629 419/1/418
f 244/1/244 318/1/318 656/1/629
f 244/1/244 656/1/629 245/1/245
f 300/1/300 419/1/418 656/1/629
f 300/1/300 656/1/629 318/1/318
f 312/1/312 311/1/311 657/1/630
f 312/1/312 657/1/630 426/1/425
f 287/1/287 591/1/565 657/1/630
f 287/1/287 657/1/630 311/1/311
f 151/1/151 426/1/425 657/1/630
f 151/1/151 657/1/630 591/1/565
f 177/1/177 596/1/570 658/1/631
f 177/1/177 658/1/631 434/1/433
f 396/1/395 493/1/489 658/1/631
f 396/1/395 658/1/631 596/1/570
f 437/1/436 434/1/433 658/1/631
f 437/1/436 658/1/631 493/1/489
f 439/88/438 442/91/441 659/113/632
f 439/88/438 659/113/632 449/94/446
f 112/35/112 415/85/414 659/113/632
f 112/35/112 659/113/632 442/91/441
f 376/68/375 449/94/446 659/113/632
f 376/68/375 659/113/632 415/85/414
f 156/1/156 231/1/231 660/1/633
f 156/1/156 660/1/633 464/1/461
f 14/1/14 571/1/546 660/1/633
f 14/1/14 660/1/633 231/1/231
f 54/1/54 464/1/461 660/1/633
f 54/1/54 660/1/633 571/1/546
f 439/88/438 451/96/448 661/114/634
f 439/88/438 661/114/634 472/98/469
f 98/21/98 97/20/97 661/114/634
f 98/21/98 661/114/634 451/96/448
f 73/2/73 472/98/469 661/114/634
f 73/2/73 661/114/634 97/20/97
f 186/1/186 652/1/626 662/1/635
f 186/1/186 662/1/635 475/1/471
f 246/1/246 421/1/420 662/1/635
f 246/1/246 662/1/635 652/1/626
f 281/1/281 475/1/471 662/1/635
f 281/1/281 662/1/635 421/1/420
f 247/1/247 250/1/250 663/1/636
f 247/1/247 663/1/636 479/1/475
f 33/1/33 346/1/346 663/1/636
f 33/1/33 663/1/636 250/1/250
f 345/1/345 479/1/475 663/1/636
f 345/1/345 663/1/636 346/1/346
f 119/1/119 118/1/118 664/1/637
f 119/1/119 664/1/637 495/1/491
f 117/1/117 254/1/254 664/1/637
f 117/1/117 664/1/637 118/1/118
f 125/1/125 495/1/491 664/1/637
f 125/1/125 664/1/637 254/1/254
f 63/1/63 60/1/60 665/1/638
f 63/1/63 665/1/638 498/1/494
f 59/1/59 538/1/519 665/1/638
f 59/1/59 665/1/638 60/1/60
f 501/1/106 498/1/494 665/1/638
f 501/1/106 665/1/638 538/1/519
f 487/1/483 485/1/481 666/1/639
f 487/1/483 666/1/639 504/1/497
f 53/1/53 667/1/640 666/1/639
f 53/1/53 666/1/639 485/1/481
f 507/1/77 504/1/497 666/1/639
f 507/1/77 666/1/639 667/1/640
f 507/1/77 667/1/640 668/1/641
f 507/1/77 668/1/641 510/1/500
f 53/1/53 406/1/405 668/1/641
f 53/1/53 668/1/641 667/1/640
f 63/1/63 510/1/500 668/1/641
f 63/1/63 668/1/641 406/1/405
f 513/1/84 669/1/165 670/1/642
f 513/1/84 670/1/642 514/1/502
f 539/1/167 671/1/643 670/1/642
f 539/1/167 670/1/642 669/1/165
f 161/1/161 514/1/502 670/1/642
f 161/1/161 670/1/642 671/1/643
f 157/1/157 458/1/455 672/1/644
f 157/1/157 672/1/644 517/1/505
f 368/1/367 673/1/645 672/1/644
f 368/1/367 672/1/644 458/1/455
f 519/1/86 517/1/505 672/1/644
f 519/1/86 672/1/644 673/1/645
f 521/1/400 674/1/399 675/1/646
f 521/1/400 675/1/646 522/1/507
f 519/1/86 673/1/645 675/1/646
f 519/1/86 675/1/646 674/1/399
f 368/1/367 522/1/507 675/1/646
f 368/1/367 675/1/646 673/1/645
f 386/1/385 384/1/383 676/1/647
f 386/1/385 676/1/647 525/1/510
f 208/1/208 563/1/538 676/1/647
f 208/1/208 676/1/647 384/1/383
f 528/1/265 525/1/510 676/1/647
f 528/1/265 676/1/647 563/1/538
f 521/1/400 524/1/509 677/1/648
f 521/1/400 677/1/648 531/1/513
f 307/1/307 310/1/310 677/1/648
f 307/1/307 677/1/648 524/1/509
f 312/1/312 531/1/513 677/1/648
f 312/1/312 677/1/648 310/1/310
f 59/1/59 423/1/422 678/1/649
f 59/1/59 678/1/649 536/1/517
f 161/1/161 671/1/643 678/1/649
f 161/1/161 678/1/649 423/1/422
f 539/1/167 536/1/517 678/1/649
f 539/1/167 678/1/649 671/1/643
f 535/1/105 534/1/516 679/1/650
f 535/1/105 679/1/650 541/1/521
f 312/1/312 428/1/427 679/1/650
f 312/1/312 679/1/650 534/1/516
f 355/1/355 541/1/521 679/1/650
f 355/1/355 679/1/650 428/1/427
f 487/1/483 506/1/499 680/1/651
f 487/1/483 680/1/651 546/1/524
f 509/1/270 681/1/267 680/1/651
f 509/1/270 680/1/651 506/1/499
f 549/1/266 546/1/524 680/1/651
f 549/1/266 680/1/651 681/1/267
f 388/1/387 560/1/535 682/1/652
f 388/1/387 682/1/652 551/1/528
f 559/1/93 683/1/210 682/1/652
f 559/1/93 682/1/652 560/1/535
f 553/1/212 551/1/528 682/1/652
f 553/1/212 682/1/652 683/1/210
f 530/1/350 684/1/349 685/1/653
f 530/1/350 685/1/653 555/1/531
f 545/1/99 544/1/523 685/1/653
f 545/1/99 685/1/653 684/1/349
f 355/1/355 555/1/531 685/1/653
f 355/1/355 685/1/653 544/1/523
f 345/1/345 550/1/527 686/1/654
f 345/1/345 686/1/654 557/1/533
f 549/1/266 687/1/552 686/1/654
f 549/1/266 686/1/654 550/1/527
f 559/1/93 557/1/533 686/1/654
f 559/1/93 686/1/654 687/1/552
f 206/1/206 554/1/530 688/1/655
f 206/1/206 688/1/655 561/1/536
f 553/1/212 689/1/262 688/1/655
f 553/1/212 688/1/655 554/1/530
f 528/1/265 561/1/536 688/1/655
f 528/1/265 688/1/655 689/1/262
f 191/1/191 588/1/562 690/1/656
f 191/1/191 690/1/656 564/1/539
f 145/1/145 615/1/589 690/1/656
f 145/1/145 690/1/656 588/1/562
f 247/1/247 564/1/539 690/1/656
f 247/1/247 690/1/656 615/1/589
# Vertices: 690, normals: 656, texture coordinates: 114, faces: 1308

